<svg xmlns="http://www.w3.org/2000/svg" xmlns:xlink="http://www.w3.org/1999/xlink" width="331" height="818" viewBox="0 0 331 818">
    <defs>
        <path id="a" d="M.263.345h135.833v320.233H.263z"/>
    </defs>
    <g fill="none" fill-rule="evenodd" opacity=".5">
        <path fill="#FFF" d="M132.447 79.494a2.898 2.898 0 0 1-2.898-2.898V44.235a2.899 2.899 0 0 1 5.796 0v32.36c0 1.6-1.297 2.899-2.898 2.899M164.805 79.494a2.898 2.898 0 0 1-2.898-2.898V44.235a2.899 2.899 0 0 1 5.796 0v32.36c0 1.6-1.297 2.899-2.898 2.899M197.164 79.494a2.898 2.898 0 0 1-2.898-2.898V44.235a2.899 2.899 0 0 1 5.796 0v32.36c0 1.6-1.297 2.899-2.898 2.899"/>
        <path fill="#FFF" d="M100.014 524.2a2.899 2.899 0 0 1-2.897-2.897V17.065C97.117 7.657 104.77 0 114.18 0H215.37c9.41 0 17.065 7.656 17.065 17.064v173.427a2.897 2.897 0 1 1-5.797 0V17.065c0-6.214-5.054-11.268-11.268-11.268H114.18c-6.213 0-11.269 5.054-11.269 11.268v504.238a2.899 2.899 0 0 1-2.898 2.898"/>
        <g transform="translate(194 187.409)">
            <mask id="b" fill="#fff">
                <use xlink:href="#a"/>
            </mask>
            <path fill="#FFF" d="M133.198 320.578a2.899 2.899 0 0 1-2.898-2.898V17.41c0-6.215-5.055-11.27-11.269-11.27H17.33c-6.214 0-11.27 5.055-11.27 11.27v267.736a2.898 2.898 0 0 1-5.796 0V17.41C.263 8 7.92.345 17.33.345h101.702c9.41 0 17.065 7.656 17.065 17.065v300.27a2.899 2.899 0 0 1-2.898 2.898" mask="url(#b)"/>
        </g>
        <path fill="#FFF" d="M132.447 128.034a2.899 2.899 0 0 1-2.898-2.898V92.775a2.899 2.899 0 0 1 5.796 0v32.36a2.899 2.899 0 0 1-2.898 2.899M164.805 128.034a2.899 2.899 0 0 1-2.898-2.898V92.775a2.899 2.899 0 0 1 5.796 0v32.36a2.899 2.899 0 0 1-2.898 2.899M197.164 128.034a2.899 2.899 0 0 1-2.898-2.898V92.775a2.899 2.899 0 0 1 5.796 0v32.36a2.899 2.899 0 0 1-2.898 2.899M132.447 176.574a2.899 2.899 0 0 1-2.898-2.898v-32.361a2.899 2.899 0 0 1 5.796 0v32.36a2.899 2.899 0 0 1-2.898 2.899M164.805 176.574a2.899 2.899 0 0 1-2.898-2.898v-32.361a2.899 2.899 0 0 1 5.796 0v32.36a2.899 2.899 0 0 1-2.898 2.899M132.447 225.113a2.898 2.898 0 0 1-2.898-2.898v-32.361a2.898 2.898 0 0 1 5.796 0v32.36c0 1.6-1.297 2.899-2.898 2.899M164.805 225.113a2.898 2.898 0 0 1-2.898-2.898v-32.361a2.898 2.898 0 0 1 5.796 0v32.36c0 1.6-1.297 2.899-2.898 2.899M132.447 273.653a2.899 2.899 0 0 1-2.898-2.898v-32.361a2.899 2.899 0 0 1 5.796 0v32.36a2.899 2.899 0 0 1-2.898 2.899M164.805 273.653a2.899 2.899 0 0 1-2.898-2.898v-32.361a2.899 2.899 0 0 1 5.796 0v32.36a2.899 2.899 0 0 1-2.898 2.899M132.447 322.189a2.898 2.898 0 0 1-2.898-2.897V286.93a2.898 2.898 0 0 1 5.796 0v32.362a2.898 2.898 0 0 1-2.898 2.897M165.808 370.729a2.899 2.899 0 0 1-2.898-2.898V335.47a2.899 2.899 0 0 1 5.796 0v32.361a2.899 2.899 0 0 1-2.898 2.898M165.808 419.896a2.898 2.898 0 0 1-2.898-2.897v-32.361a2.898 2.898 0 0 1 5.796 0v32.361a2.898 2.898 0 0 1-2.898 2.897M132.447 370.729a2.899 2.899 0 0 1-2.898-2.898V335.47a2.899 2.899 0 0 1 5.796 0v32.361a2.899 2.899 0 0 1-2.898 2.898M132.447 419.896a2.898 2.898 0 0 1-2.898-2.897v-32.361a2.898 2.898 0 0 1 5.796 0v32.361a2.898 2.898 0 0 1-2.898 2.897M165.808 470.687a2.899 2.899 0 0 1-2.898-2.898v-32.361a2.899 2.899 0 0 1 5.796 0v32.361a2.899 2.899 0 0 1-2.898 2.898M132.447 470.687a2.899 2.899 0 0 1-2.898-2.898v-32.361a2.899 2.899 0 0 1 5.796 0v32.361a2.899 2.899 0 0 1-2.898 2.898M164.805 322.189a2.898 2.898 0 0 1-2.898-2.897V286.93a2.898 2.898 0 0 1 5.796 0v32.362a2.898 2.898 0 0 1-2.898 2.897M197.164 176.574a2.899 2.899 0 0 1-2.898-2.898v-32.361a2.899 2.899 0 0 1 5.796 0v32.36a2.899 2.899 0 0 1-2.898 2.899M35.33 372.703a2.899 2.899 0 0 1-2.897-2.898v-32.361a2.899 2.899 0 0 1 5.796 0v32.36a2.899 2.899 0 0 1-2.898 2.899M67.689 372.703a2.899 2.899 0 0 1-2.898-2.898v-32.361a2.899 2.899 0 0 1 5.796 0v32.36a2.899 2.899 0 0 1-2.898 2.899"/>
        <path fill="#FFF" d="M2.898 817.409A2.898 2.898 0 0 1 0 814.51V310.274c0-9.41 7.655-17.065 17.065-17.065h84.188v5.797H17.065c-6.214 0-11.269 5.054-11.269 11.268V814.51c0 1.6-1.297 2.898-2.898 2.898"/>
        <path fill="#FFF" d="M35.33 421.243a2.899 2.899 0 0 1-2.897-2.898v-32.361a2.898 2.898 0 0 1 5.796 0v32.36a2.899 2.899 0 0 1-2.898 2.899M67.689 421.243a2.899 2.899 0 0 1-2.898-2.898v-32.361a2.898 2.898 0 0 1 5.796 0v32.36a2.899 2.899 0 0 1-2.898 2.899M35.33 469.782a2.898 2.898 0 0 1-2.897-2.898v-32.361a2.898 2.898 0 0 1 5.796 0v32.36c0 1.6-1.297 2.899-2.898 2.899M67.689 469.782a2.898 2.898 0 0 1-2.898-2.898v-32.361a2.898 2.898 0 0 1 5.796 0v32.36c0 1.6-1.297 2.899-2.898 2.899M35.33 518.322a2.899 2.899 0 0 1-2.897-2.898v-32.361a2.899 2.899 0 0 1 5.796 0v32.36a2.899 2.899 0 0 1-2.898 2.899M67.689 518.322a2.899 2.899 0 0 1-2.898-2.898v-32.361a2.899 2.899 0 0 1 5.796 0v32.36a2.899 2.899 0 0 1-2.898 2.899M35.33 566.862a2.899 2.899 0 0 1-2.897-2.898v-32.361a2.899 2.899 0 0 1 5.796 0v32.36a2.899 2.899 0 0 1-2.898 2.899M67.689 566.862a2.899 2.899 0 0 1-2.898-2.898v-32.361a2.899 2.899 0 0 1 5.796 0v32.36a2.899 2.899 0 0 1-2.898 2.899M35.33 615.398a2.899 2.899 0 0 1-2.897-2.898v-32.361a2.899 2.899 0 0 1 5.796 0V612.5a2.899 2.899 0 0 1-2.898 2.898M68.691 663.938a2.899 2.899 0 0 1-2.898-2.898v-32.361a2.899 2.899 0 0 1 5.796 0v32.361a2.899 2.899 0 0 1-2.898 2.898M68.691 713.105a2.899 2.899 0 0 1-2.898-2.898v-32.361a2.899 2.899 0 0 1 5.796 0v32.361a2.899 2.899 0 0 1-2.898 2.898M35.33 663.938a2.899 2.899 0 0 1-2.897-2.898v-32.361a2.899 2.899 0 0 1 5.796 0v32.361a2.899 2.899 0 0 1-2.898 2.898M35.33 713.105a2.899 2.899 0 0 1-2.897-2.898v-32.361a2.899 2.899 0 0 1 5.796 0v32.361a2.899 2.899 0 0 1-2.898 2.898M67.689 615.398a2.899 2.899 0 0 1-2.898-2.898v-32.361a2.899 2.899 0 0 1 5.796 0V612.5a2.899 2.899 0 0 1-2.898 2.898M229.368 273.606a2.898 2.898 0 0 1-2.898-2.898v-48.537a2.899 2.899 0 0 1 5.796 0v48.537c0 1.6-1.297 2.898-2.898 2.898M261.725 273.606a2.898 2.898 0 0 1-2.898-2.898v-48.537a2.899 2.899 0 0 1 5.796 0v48.537c0 1.6-1.297 2.898-2.898 2.898M294.085 273.606a2.898 2.898 0 0 1-2.898-2.898v-48.537a2.899 2.899 0 0 1 5.796 0v48.537c0 1.6-1.297 2.898-2.898 2.898M229.368 322.146a2.899 2.899 0 0 1-2.898-2.898v-32.356a2.898 2.898 0 0 1 5.796 0v32.356a2.899 2.899 0 0 1-2.898 2.898M261.725 322.146a2.899 2.899 0 0 1-2.898-2.898v-32.356a2.898 2.898 0 0 1 5.796 0v32.356a2.899 2.899 0 0 1-2.898 2.898M294.085 322.146a2.899 2.899 0 0 1-2.898-2.898v-32.356a2.898 2.898 0 0 1 5.796 0v32.356a2.899 2.899 0 0 1-2.898 2.898M229.368 370.686a2.899 2.899 0 0 1-2.898-2.898v-32.356a2.898 2.898 0 0 1 5.796 0v32.356a2.899 2.899 0 0 1-2.898 2.898M261.725 370.686a2.899 2.899 0 0 1-2.898-2.898v-32.356a2.898 2.898 0 0 1 5.796 0v32.356a2.899 2.899 0 0 1-2.898 2.898M294.085 370.686a2.899 2.899 0 0 1-2.898-2.898v-32.356a2.898 2.898 0 0 1 5.796 0v32.356a2.899 2.899 0 0 1-2.898 2.898M229.368 419.225a2.898 2.898 0 0 1-2.898-2.897v-32.363a2.899 2.899 0 0 1 5.796 0v32.363a2.898 2.898 0 0 1-2.898 2.897M261.725 419.225a2.898 2.898 0 0 1-2.898-2.897v-32.363a2.899 2.899 0 0 1 5.796 0v32.363a2.898 2.898 0 0 1-2.898 2.897M294.085 419.225a2.898 2.898 0 0 1-2.898-2.897v-32.363a2.899 2.899 0 0 1 5.796 0v32.363a2.898 2.898 0 0 1-2.898 2.897"/>
    </g>
</svg>
