<svg xmlns="http://www.w3.org/2000/svg" xmlns:xlink="http://www.w3.org/1999/xlink" width="735" height="427" viewBox="0 0 735 427">
    <defs>
        <path id="a" d="M0 .13h48.99v98.196H0z"/>
        <path id="c" d="M0 427h735V0H0z"/>
    </defs>
    <g fill="none" fill-rule="evenodd">
        <g transform="translate(0 214)">
            <mask id="b" fill="#fff">
                <use xlink:href="#a"/>
            </mask>
            <path fill="#74AD3F" d="M40.255 98.326C22.91 25.453 0 .13 0 .13s46.4 62.145 48.99 90.827" mask="url(#b)"/>
        </g>
        <path fill="#74AD3F" d="M36.024 302C21.447 272.565 6 264 6 264s31.869 21.985 35 33.99M52.536 307C62.546 233.332 83 206 83 206s-40.321 66.065-39.998 94.626"/>
        <path fill="#74AD3F" d="M36.29 336C67.395 268.304 95 248 95 248s-57.974 51.7-66 79.153"/>
        <path fill="#74AD3F" d="M35.391 308C42.831 213.697 30 176 30 176s22.52 89.644 15.72 125.525"/>
        <path fill="#74AD3F" d="M32 311.504C56.671 214.99 67 172 67 172S45.236 280.986 50.325 314"/>
        <path fill="#FFF" d="M68.371 397h-49.74L5 302h77z"/>
        <mask id="d" fill="#fff">
            <use xlink:href="#c"/>
        </mask>
        <path fill="#E6E6E6" d="M3 308h80v-7H3z" mask="url(#d)"/>
        <path fill="#C4DEAE" d="M478.07 401.38c-6.597-11.507-14.752-19.38-14.752-19.38l-27.876 15.75c-14.436 8.735-50.758 23.424-15.51 20.98 35.246-2.447 64.737-5.846 58.139-17.35M646.07 409.378C639.474 397.874 631.319 390 631.319 390l-27.876 15.75c-14.436 8.736-50.758 23.424-15.51 20.98 35.246-2.448 64.737-5.845 58.139-17.352" mask="url(#d)"/>
        <path fill="#F2F2F2" d="M668.356 307H195.644c-3.654 0-6.644-3.004-6.644-6.677v-85.646c0-3.673 2.99-6.677 6.644-6.677h472.712c3.654 0 6.644 3.004 6.644 6.677v85.646c0 3.673-2.99 6.677-6.644 6.677" mask="url(#d)"/>
        <path fill="#DEE2DF" d="M668.356 224H195.644c-3.654 0-6.644-3.014-6.644-6.7v-77.6c0-3.684 2.99-6.7 6.644-6.7h472.712c3.654 0 6.644 3.016 6.644 6.7v77.6c0 3.686-2.99 6.7-6.644 6.7" mask="url(#d)"/>
        <path fill="#FFF" d="M668.356 232H195.644c-3.654 0-6.644-3.016-6.644-6.702V147.7c0-3.685 2.99-6.699 6.644-6.699h472.712c3.654 0 6.644 3.014 6.644 6.7v77.598c0 3.686-2.99 6.702-6.644 6.702M660.278 347H445.722c-7.547 0-13.722-6.08-13.722-13.511V311.51c0-7.43 6.175-13.511 13.722-13.511h214.556c7.547 0 13.722 6.081 13.722 13.511v21.978c0 7.43-6.175 13.511-13.722 13.511" mask="url(#d)"/>
        <path fill="#4D4D4C" d="M528.154 244.25c-21.3 21.968-31.684 23.921-37.866 42.922-6.99 21.482-40.288 107.78-40.288 107.78s16.428 6.97 23.75.315c7.322-6.657 34.951-45.695 48.42-73.655 10.213-21.203 11.837-22.99 28.472-36.998 9.718-8.184 50.064-27.715 50.064-27.715s-37.837 10.15-39.835 30.784C559.002 307 614.065 399.7 614.065 399.7s19.055 2.382 23.049-6.273c3.993-8.653-25.046-94.996-23.049-101.653 1.997-6.655 18.553-12.008 31.2-21.994 12.647-9.984 20.738-28.147 16.68-42.17-7.323-25.294-19.97-36.61-19.97-36.61l-113.82 53.25z" mask="url(#d)"/>
        <path fill="#1D1D1B" d="M567 231.663c-37.076-5.827-63.54 28.54-68.52 33.918C493.498 270.958 473.35 313.25 462 368c0 0 31.465-84.028 37.312-93.247 8.96-14.124 67.688-43.09 67.688-43.09" mask="url(#d)"/>
        <path fill="#AFB5AF" d="M152.85 399.482l3.862.483c2.408.3 4.632-1.363 4.941-3.695l9.31-69.964c.311-2.332-1.404-4.487-3.812-4.788l-3.863-.483c-2.408-.302-4.632 1.362-4.941 3.695l-9.31 69.964c-.311 2.332 1.404 4.487 3.812 4.788M715.15 399.482l-3.862.483c-2.408.3-4.632-1.363-4.941-3.695l-9.31-69.964c-.311-2.332 1.404-4.487 3.812-4.788l3.863-.483c2.408-.3 4.632 1.361 4.941 3.695l9.31 69.964c.311 2.332-1.404 4.487-3.812 4.788" mask="url(#d)"/>
        <path fill="#FFF" d="M418.278 347H203.722c-7.547 0-13.722-6.08-13.722-13.511V311.51c0-7.43 6.175-13.511 13.722-13.511h214.556c7.547 0 13.722 6.081 13.722 13.511v21.978c0 7.43-6.175 13.511-13.722 13.511" mask="url(#d)"/>
        <path fill="#DEE2DF" d="M157.886 158H191v86h-60l16.12-77.32c1.055-5.054 5.551-8.68 10.766-8.68" mask="url(#d)"/>
        <path fill="#FFF" d="M131 249.534v91.932c0 3.057 2.513 5.534 5.614 5.534h48.772c3.1 0 5.614-2.477 5.614-5.534v-91.932c0-3.056-2.514-5.534-5.614-5.534h-48.772c-3.101 0-5.614 2.478-5.614 5.534" mask="url(#d)"/>
        <path fill="#DEE2DF" d="M708.114 158H675v86h60l-16.12-77.32c-1.055-5.054-5.552-8.68-10.766-8.68" mask="url(#d)"/>
        <path fill="#FFF" d="M735 249.534v91.932c0 3.057-2.513 5.534-5.614 5.534h-48.772c-3.1 0-5.614-2.477-5.614-5.534v-91.932c0-3.056 2.514-5.534 5.614-5.534h48.772c3.101 0 5.614 2.478 5.614 5.534" mask="url(#d)"/>
        <path fill="#C4DEAE" d="M457.737 108c-13.585 6.136-52.996 12.569-54.694 28.591C401.89 147.46 424.41 222 424.41 222l15.095-7.64s-1.14-26.305-1.14-53.752c0-18.509-11.394-19.396 12.34-19.396L474 140.186M638.018 143.21c5.102 21.113 15.891 37.947 12.244 47.89-10.202 27.809-63.56 27.183-69.943 36.849-7.142 10.815-24.742 6.912-32.875 3.204-15.813-7.209-22.898-16.25-4.534-14.19 18.364 2.06 68.072-34.617 68.072-34.617L600.27 136" mask="url(#d)"/>
        <path fill="#FFF" d="M465.285 139.255c-6.13-5.79-16.052-24.86-14.014-29.746 17.709-4.768 35.42-14.743 65.387-23.597 29.967-8.854 53.466-14.304 64.703-12.601 11.239 1.703 40.183 6.13 49.037 33.374 8.855 27.243 11.58 42.908 11.58 42.908s1.361-7.152-17.028-5.448c-18.39 1.703-28.265 2.383-28.265 2.383l4.768 61.299L548.329 216l-45.973-62.32a33.234 33.234 0 0 0-25.898-14.012l-11.173-.413z" mask="url(#d)"/>
        <path fill="#C4DEAE" d="M116.997 141.618c-1.963-4.691-8.392-4.864-10.556-.264-4.458 9.483-6.519 22.698-1.574 28.893 7.408 9.281 21.059 20.866 24.988 26.354 9.678 13.52 15.837 11.192 28.943 7.712 13.107-3.48 30.202-5.8 30.202-5.8l-2.28-20.884s-8.63-1.577-21.975-3.944c-31.438-5.578-43.29-21.41-47.748-32.067M210.27 266.298c-4.617-2.089-9.493 2.244-7.994 7.128 3.089 10.067 12.198 15.544 20.036 16.671 11.74 1.686 29.655.737 36.262 2.047 16.28 3.228 18.716-2.757 20.393-16.478 1.875-15.336 9.033-27.57 9.033-27.57L272.321 235s1.363.861-6.647 12.406c-14.883 21.453-44.92 23.637-55.405 18.892" mask="url(#d)"/>
        <path fill="#1D1D1B" d="M438 229.931c-31.167 4.279-59.597-80.629-70.89-97.196-9.167-13.449-17.94-15.229-27.501-12.838-22 5.503-56.962 88.172-69.483 122.932-1.613 4.478 12.788 19.437 15.576 15.58 10.234-14.158 56.962-79.215 56.962-79.215s26.28 84.358 48.28 97.806" mask="url(#d)"/>
        <path fill="#4D4D4C" d="M442.269 229.441c-21.178 8.302-45.068 5.548-63.459-7.867-17.892-13.05-38.028-27.874-45.806-34.117-15.277-12.263-26.277-20.234-39.11-16.554-12.834 3.678-107.558 4.904-117.336 4.291 0 0-13.445 19.62-1.833 25.75 0 0 110.001 8.584 114.278 10.424 4.279 1.838 49.318 54.087 62.336 66.215 17.11 15.94 58.055 25.75 114.89 14.715 0 0 15.888-6.744 12.222-21.458-3.667-14.716-33.513-42.043-35.702-41.562-.101.024-.264.08-.48.163" mask="url(#d)"/>
        <path fill="#E9F2E1" d="M538.022 148.853c6.104 4.836-8.3 17.892-8.3 17.892-.289.163-.556.36-.858.486-64.109 26.698-11.248 35.536 6.353 26.118.537-.286 19.536-7.255 19.536-7.255s7.316-12.505 9.581-16.767c4.876-9.168 15.666-9.913 15.666-9.913L558.415 148l-20.393.853z" mask="url(#d)"/>
        <path fill="#E18184" d="M433 228.998c7.35-.613 21.083 14.697 27.557 25.115 14.085 22.664 6.125 35.53-.612 39.817 2.988.894 35.445-6.769 64.913-22.053 16.534-8.576 50.829-32.465 54.503-45.33 3.674-12.864.612-22.052-3.674-30.628-4.288-8.575-15.923-18.99-15.923-18.99L502.2 191.63s6.736-15.315 26.945-24.502c-.87-.753-2.799-1.65-3.86-1.863-2.35-.47-5.725-1.367-25.535 7.988-10.586 5-34.498 1.728-35.06 29.072-.168 8.135-4.39 15.674-11.43 19.755-10.886 6.312-20.26 6.917-20.26 6.917" mask="url(#d)"/>
        <path fill="#E9F2E1" d="M588.382 137.89c-7.35 19.92-24.255 17.24-46.657 16.674-17.403-.441-22.249-10.516-13.392-36.785 7.857-23.304 27.306-32.852 42.907-27.188 15.6 5.664 24.492 27.38 17.142 47.3" mask="url(#d)"/>
        <path fill="#C4DEAE" d="M551.06 32.218c13.566 16.186 5.905 48.213-11.413 61.976-7.914 6.288-21.247 2.178-34.056-14.06-15.154-19.21-14.921-39.714-2.379-50.281 12.543-10.566 34.28-13.822 47.848 2.365" mask="url(#d)"/>
        <path fill="#74AD3F" d="M480 33.946c7.768 8.914 18.952 21.87 46.277.425l15.108 13.374 3.811-.082s-4.796-12.416 6.853-11.739C557.157 36.221 558.17 54 558.17 54s11.7-19.92 1.947-35.276C550.365 3.371 529.1-4.86 524.496 3.065c0 0-25.396-1.496-31.27 14.595C487.522 33.29 480 33.946 480 33.946M540.647 101.78c-4.04-4.761 11.394-23.101 31.05-15.795-2.308-2.72 5.392-3.985 13.463-2.057 8.07 1.927 17.77 7.15 26.693 21.8 8.924 14.647 19.94 50.406 36.494 49.235 7.473-.529 19.41-5.83 26.65-5.45 4.343.227 22.148 8.261 18.518 20.922-.825 2.878-19.9-7.204-26.431 7.969-7 16.263-31.658 35.582-48.705 19.634-17.047-15.947-37.383-5.394-49.423-22.575-12.07-17.227-6.792-36.154 4.446-45.412 11.391-9.385-32.285-24.254-7.032-30.084-20.181-8.614-25.723 1.812-25.723 1.812" mask="url(#d)"/>
        <path fill="#E9F2E1" d="M465.282 236.912c15.872 10.243 15.692 5.574 22.528 4.609 5.45-.768 31.718-13.503 42.64-23.573 13.89-12.805 39.332-23.435 47.657-5.876 6.425 13.551-5.008 23.774-11.932 28.699-21.474 15.272-65.946 31.708-82.57 33.216-9.455.858-41.874-39.636-41.874-39.636s-21.54-17.364-22.241-22.859c-.135-1.062-1.223-3.363-1.443-4.674-.917-5.47-2.076-11.879.655-8.984 3.385 3.587 18.42 16.311 20.816 13.214 2.396-3.098-2.41-15.154-.318-16.92 2.088-1.765 7.45 15.192 10.078 20.85 2.628 5.66 7.576 16.494 16.004 21.934" mask="url(#d)"/>
        <path fill="#C4DEAE" d="M538.784 214.964c-18.265-2.038-12.402 12 10.598 19.02 8.491 2.592 25.48.227 31.963-7.132 3.644-4.138 18.752-5.535 32.655-11.93L603.273 193c-16.226 9.812-52.286 23.325-64.49 21.964" mask="url(#d)"/>
        <path fill="#1D1D1B" d="M611 234c-30.303 21.857-50.167 46.788-49.999 54.131.168 7.342 14.983 51.74 44.611 98.869 0 0-35.511-82.194-37.71-92.893C564.538 277.714 611 234 611 234" mask="url(#d)"/>
        <path fill="#C4DEAE" d="M575 212.503c-12.57-4.498-22.802-4.43-25.934-4.498-11.425-.242 12.32 7.803 18.346 8.995" mask="url(#d)"/>
    </g>
</svg>
