<svg xmlns="http://www.w3.org/2000/svg" xmlns:xlink="http://www.w3.org/1999/xlink" width="78" height="106" viewBox="0 0 78 106">
    <defs>
        <path id="a" d="M0 .93h77.403V107H0z"/>
    </defs>
    <g fill="none" fill-rule="evenodd">
        <g transform="translate(0 -.929)">
            <mask id="b" fill="#fff">
                <use xlink:href="#a"/>
            </mask>
            <path fill="#8DC266" d="M38.702 107C17.327 107 0 89.673 0 68.298V39.63C0 18.256 17.327.93 38.702.93c21.375 0 38.702 17.326 38.702 38.7v28.668C77.404 89.673 60.077 107 38.702 107" mask="url(#b)"/>
        </g>
        <g fill="#FFF" opacity=".29">
            <path d="M39.061 34.83c-.125-.085-.24-.172-.359-.258-.119.086-.235.173-.36.257h.72z"/>
            <path d="M39.061 34.83h-.719c-2.436 1.617-6.079 2.648-10.156 2.648-3.488 0-6.653-.759-9.023-1.99v22.44a11.8 11.8 0 0 0 4.45 9.231l15.09 12.021L53.79 67.16a11.8 11.8 0 0 0 4.45-9.232v-22.44c-2.37 1.231-5.535 1.99-9.024 1.99-4.076 0-7.719-1.03-10.156-2.649"/>
        </g>
        <g fill="#FFF" opacity=".29">
            <path d="M39.061 47.052c-.125-.083-.24-.171-.359-.257-.119.086-.235.174-.36.257h.72zM39.061 47.052h-.719C35.906 48.67 32.263 49.7 28.186 49.7c-3.488 0-6.653-.758-9.023-1.991v22.44a11.8 11.8 0 0 0 4.45 9.233l15.09 12.02 15.088-12.02a11.8 11.8 0 0 0 4.45-9.232V47.71c-2.37 1.233-5.535 1.99-9.024 1.99-4.076 0-7.719-1.03-10.156-2.648"/>
        </g>
        <path fill="#FFF" d="M39.061 22.605c-.125-.083-.24-.17-.359-.257-.119.087-.235.174-.36.257h.72zM39.061 22.605h-.719c-2.436 1.62-6.079 2.65-10.156 2.65-3.488 0-6.653-.759-9.023-1.992v22.442a11.8 11.8 0 0 0 4.45 9.231l15.09 12.021 15.088-12.02a11.8 11.8 0 0 0 4.45-9.232V23.263c-2.37 1.233-5.535 1.991-9.024 1.991-4.076 0-7.719-1.03-10.156-2.649"/>
        <path fill="#8DC266" d="M38.702 46.34l-7.097 5.179 2.734-8.35-7.12-5.148 8.786.019 2.697-8.361 2.697 8.36 8.785-.018-7.12 5.148 2.734 8.35z"/>
    </g>
</svg>
