<svg xmlns="http://www.w3.org/2000/svg" xmlns:xlink="http://www.w3.org/1999/xlink" width="182" height="266" viewBox="0 0 182 266">
    <defs>
        <path id="a" d="M0 1.014h181.981v262.61H.001z"/>
        <path id="c" d="M.497 58.824v82.562c0 31.779 27.34 57.78 60.755 57.78 33.415 0 60.757-26.001 60.757-57.78V58.824c0-31.779-27.342-57.778-60.757-57.778-33.416 0-60.755 26-60.755 57.778"/>
        <path id="e" d="M.497 58.824v82.562c0 31.779 27.34 57.78 60.755 57.78 33.415 0 60.757-26.001 60.757-57.78V58.824c0-31.779-27.342-57.778-60.757-57.778-33.416 0-60.755 26-60.755 57.778"/>
        <path id="g" d="M.497 58.824v82.562c0 31.779 27.34 57.78 60.755 57.78 33.415 0 60.757-26.001 60.757-57.78V58.824c0-31.779-27.342-57.778-60.757-57.778-33.416 0-60.755 26-60.755 57.778"/>
        <path id="i" d="M.497 58.824v82.562c0 31.779 27.34 57.78 60.755 57.78 33.415 0 60.757-26.001 60.757-57.78V58.824c0-31.779-27.342-57.778-60.757-57.778-33.416 0-60.755 26-60.755 57.778"/>
        <path id="k" d="M.497 58.824v82.562c0 31.779 27.34 57.78 60.755 57.78 33.415 0 60.757-26.001 60.757-57.78V58.824c0-31.779-27.342-57.778-60.757-57.778-33.416 0-60.755 26-60.755 57.778"/>
        <path id="m" d="M.497 58.824v82.562c0 31.779 27.34 57.78 60.755 57.78 33.415 0 60.757-26.001 60.757-57.78V58.824c0-31.779-27.342-57.778-60.757-57.778-33.416 0-60.755 26-60.755 57.778"/>
        <path id="o" d="M.497 58.824v82.562c0 31.779 27.34 57.78 60.755 57.78 33.415 0 60.757-26.001 60.757-57.78V58.824c0-31.779-27.342-57.778-60.757-57.778-33.416 0-60.755 26-60.755 57.778"/>
        <path id="q" d="M.497 58.824v82.562c0 31.779 27.34 57.78 60.755 57.78 33.415 0 60.757-26.001 60.757-57.78V58.824c0-31.779-27.342-57.778-60.757-57.778-33.416 0-60.755 26-60.755 57.778"/>
        <path id="s" d="M.497 58.824v82.562c0 31.779 27.34 57.78 60.755 57.78 33.415 0 60.757-26.001 60.757-57.78V58.824c0-31.779-27.342-57.778-60.757-57.778-33.416 0-60.755 26-60.755 57.778"/>
        <path id="u" d="M.497 58.824v82.562c0 31.779 27.34 57.78 60.755 57.78 33.415 0 60.757-26.001 60.757-57.78V58.824c0-31.779-27.342-57.778-60.757-57.778-33.416 0-60.755 26-60.755 57.778"/>
        <path id="w" d="M.497 58.824v82.562c0 31.779 27.34 57.78 60.755 57.78 33.415 0 60.757-26.001 60.757-57.78V58.824c0-31.779-27.342-57.778-60.757-57.778-33.416 0-60.755 26-60.755 57.778"/>
        <path id="y" d="M.497 58.824v82.562c0 31.779 27.34 57.78 60.755 57.78 33.415 0 60.757-26.001 60.757-57.78V58.824c0-31.779-27.342-57.778-60.757-57.778-33.416 0-60.755 26-60.755 57.778"/>
        <path id="A" d="M.497 58.824v82.562c0 31.779 27.34 57.78 60.755 57.78 33.415 0 60.757-26.001 60.757-57.78V58.824c0-31.779-27.342-57.778-60.757-57.778-33.416 0-60.755 26-60.755 57.778"/>
        <path id="C" d="M.497 58.824v82.562c0 31.779 27.34 57.78 60.755 57.78 33.415 0 60.757-26.001 60.757-57.78V58.824c0-31.779-27.342-57.778-60.757-57.778-33.416 0-60.755 26-60.755 57.778"/>
        <path id="E" d="M.497 58.824v82.562c0 31.779 27.34 57.78 60.755 57.78 33.415 0 60.757-26.001 60.757-57.78V58.824c0-31.779-27.342-57.778-60.757-57.778-33.416 0-60.755 26-60.755 57.778"/>
        <path id="G" d="M.497 58.824v82.562c0 31.779 27.34 57.78 60.755 57.78 33.415 0 60.757-26.001 60.757-57.78V58.824c0-31.779-27.342-57.778-60.757-57.778-33.416 0-60.755 26-60.755 57.778"/>
        <path id="I" d="M.497 58.824v82.562c0 31.779 27.34 57.78 60.755 57.78 33.415 0 60.757-26.001 60.757-57.78V58.824c0-31.779-27.342-57.778-60.757-57.778-33.416 0-60.755 26-60.755 57.778"/>
        <path id="K" d="M.497 58.824v82.562c0 31.779 27.34 57.78 60.755 57.78 33.415 0 60.757-26.001 60.757-57.78V58.824c0-31.779-27.342-57.778-60.757-57.778-33.416 0-60.755 26-60.755 57.778"/>
        <path id="M" d="M.497 58.824v82.562c0 31.779 27.34 57.78 60.755 57.78 33.415 0 60.757-26.001 60.757-57.78V58.824c0-31.779-27.342-57.778-60.757-57.778-33.416 0-60.755 26-60.755 57.778"/>
        <path id="O" d="M.497 58.824v82.562c0 31.779 27.34 57.78 60.755 57.78 33.415 0 60.757-26.001 60.757-57.78V58.824c0-31.779-27.342-57.778-60.757-57.778-33.416 0-60.755 26-60.755 57.778"/>
        <path id="Q" d="M.497 58.824v82.562c0 31.779 27.34 57.78 60.755 57.78 33.415 0 60.757-26.001 60.757-57.78V58.824c0-31.779-27.342-57.778-60.757-57.778-33.416 0-60.755 26-60.755 57.778"/>
        <path id="S" d="M.497 58.824v82.562c0 31.779 27.34 57.78 60.755 57.78 33.415 0 60.757-26.001 60.757-57.78V58.824c0-31.779-27.342-57.778-60.757-57.778-33.416 0-60.755 26-60.755 57.778"/>
        <path id="U" d="M.497 58.824v82.562c0 31.779 27.34 57.78 60.755 57.78 33.415 0 60.757-26.001 60.757-57.78V58.824c0-31.779-27.342-57.778-60.757-57.778-33.416 0-60.755 26-60.755 57.778"/>
        <path id="W" d="M.497 58.824v82.562c0 31.779 27.34 57.78 60.755 57.78 33.415 0 60.757-26.001 60.757-57.78V58.824c0-31.779-27.342-57.778-60.757-57.778-33.416 0-60.755 26-60.755 57.778"/>
        <path id="Y" d="M.497 58.824v82.562c0 31.779 27.34 57.78 60.755 57.78 33.415 0 60.757-26.001 60.757-57.78V58.824c0-31.779-27.342-57.778-60.757-57.778-33.416 0-60.755 26-60.755 57.778"/>
        <path id="aa" d="M.497 58.824v82.562c0 31.779 27.34 57.78 60.755 57.78 33.415 0 60.757-26.001 60.757-57.78V58.824c0-31.779-27.342-57.778-60.757-57.778-33.416 0-60.755 26-60.755 57.778"/>
        <path id="ac" d="M.497 58.824v82.562c0 31.779 27.34 57.78 60.755 57.78 33.415 0 60.757-26.001 60.757-57.78V58.824c0-31.779-27.342-57.778-60.757-57.778-33.416 0-60.755 26-60.755 57.778"/>
        <path id="ae" d="M.497 58.824v82.562c0 31.779 27.34 57.78 60.755 57.78 33.415 0 60.757-26.001 60.757-57.78V58.824c0-31.779-27.342-57.778-60.757-57.778-33.416 0-60.755 26-60.755 57.778"/>
        <path id="ag" d="M.497 58.824v82.562c0 31.779 27.34 57.78 60.755 57.78 33.415 0 60.757-26.001 60.757-57.78V58.824c0-31.779-27.342-57.778-60.757-57.778-33.416 0-60.755 26-60.755 57.778"/>
        <path id="ai" d="M.497 58.824v82.562c0 31.779 27.34 57.78 60.755 57.78 33.415 0 60.757-26.001 60.757-57.78V58.824c0-31.779-27.342-57.778-60.757-57.778-33.416 0-60.755 26-60.755 57.778"/>
        <path id="ak" d="M.497 58.824v82.562c0 31.779 27.34 57.78 60.755 57.78 33.415 0 60.757-26.001 60.757-57.78V58.824c0-31.779-27.342-57.778-60.757-57.778-33.416 0-60.755 26-60.755 57.778"/>
        <path id="am" d="M.497 58.824v82.562c0 31.779 27.34 57.78 60.755 57.78 33.415 0 60.757-26.001 60.757-57.78V58.824c0-31.779-27.342-57.778-60.757-57.778-33.416 0-60.755 26-60.755 57.778"/>
        <path id="ao" d="M.497 58.824v82.562c0 31.779 27.34 57.78 60.755 57.78 33.415 0 60.757-26.001 60.757-57.78V58.824c0-31.779-27.342-57.778-60.757-57.778-33.416 0-60.755 26-60.755 57.778"/>
        <path id="aq" d="M.497 58.824v82.562c0 31.779 27.34 57.78 60.755 57.78 33.415 0 60.757-26.001 60.757-57.78V58.824c0-31.779-27.342-57.778-60.757-57.778-33.416 0-60.755 26-60.755 57.778"/>
        <path id="as" d="M.497 58.824v82.562c0 31.779 27.34 57.78 60.755 57.78 33.415 0 60.757-26.001 60.757-57.78V58.824c0-31.779-27.342-57.778-60.757-57.778-33.416 0-60.755 26-60.755 57.778"/>
        <path id="au" d="M.497 58.824v82.562c0 31.779 27.34 57.78 60.755 57.78 33.415 0 60.757-26.001 60.757-57.78V58.824c0-31.779-27.342-57.778-60.757-57.778-33.416 0-60.755 26-60.755 57.778"/>
        <path id="aw" d="M.497 58.824v82.562c0 31.779 27.34 57.78 60.755 57.78 33.415 0 60.757-26.001 60.757-57.78V58.824c0-31.779-27.342-57.778-60.757-57.778-33.416 0-60.755 26-60.755 57.778"/>
        <path id="ay" d="M.497 58.824v82.562c0 31.779 27.34 57.78 60.755 57.78 33.415 0 60.757-26.001 60.757-57.78V58.824c0-31.779-27.342-57.778-60.757-57.778-33.416 0-60.755 26-60.755 57.778z"/>
        <path id="aA" d="M.497 58.824v82.562c0 31.779 27.34 57.78 60.755 57.78 33.415 0 60.757-26.001 60.757-57.78V58.824c0-31.779-27.342-57.778-60.757-57.778-33.416 0-60.755 26-60.755 57.778"/>
        <path id="aC" d="M.497 58.824v82.562c0 31.779 27.34 57.78 60.755 57.78 33.415 0 60.757-26.001 60.757-57.78V58.824c0-31.779-27.342-57.778-60.757-57.778-33.416 0-60.755 26-60.755 57.778z"/>
        <path id="aE" d="M.497 58.824v82.562c0 31.779 27.34 57.78 60.755 57.78 33.415 0 60.757-26.001 60.757-57.78V58.824c0-31.779-27.342-57.778-60.757-57.778-33.416 0-60.755 26-60.755 57.778z"/>
        <path id="aG" d="M.497 58.824v82.562c0 31.779 27.34 57.78 60.755 57.78 33.415 0 60.757-26.001 60.757-57.78V58.824c0-31.779-27.342-57.778-60.757-57.778-33.416 0-60.755 26-60.755 57.778z"/>
        <path id="aI" d="M.497 58.824v82.562c0 31.779 27.34 57.78 60.755 57.78 33.415 0 60.757-26.001 60.757-57.78V58.824c0-31.779-27.342-57.778-60.757-57.778-33.416 0-60.755 26-60.755 57.778"/>
    </defs>
    <g fill="none" fill-rule="evenodd">
        <path fill="#FFF" d="M90.99 2.024c49.71 0 90.154 38.46 90.154 85.732v89.471c0 47.275-40.444 85.734-90.153 85.734-49.71 0-90.153-38.46-90.153-85.734v-89.47C.838 40.483 41.28 2.023 90.99 2.023"/>
        <g transform="translate(0 .173)">
            <mask id="b" fill="#fff">
                <use xlink:href="#a"/>
            </mask>
            <path fill="#4C4C4B" d="M90.99 2.687c-49.248 0-89.314 38.084-89.314 84.897v89.47c0 46.812 40.066 84.897 89.315 84.897 49.248 0 89.314-38.085 89.314-84.897v-89.47c0-46.813-40.066-84.897-89.314-84.897m0 260.938C40.818 263.625 0 224.789 0 177.054v-89.47c0-47.735 40.817-86.57 90.99-86.57 50.172 0 90.99 38.835 90.99 86.57v89.47c0 47.735-40.818 86.57-90.99 86.57" mask="url(#b)"/>
        </g>
        <path fill="#4C4C4B" d="M29.12 215.609a.84.84 0 0 1-.682-.35c-9.247-12.933-14.134-28.162-14.134-44.039V93.764c0-23.928 11.018-46.013 30.23-60.592a.837.837 0 1 1 1.015 1.332c-18.792 14.261-29.57 35.86-29.57 59.26v77.456c0 15.527 4.78 30.42 13.823 43.066a.836.836 0 0 1-.682 1.323m122.213 2.063a.832.832 0 0 1-.51-.174.834.834 0 0 1-.155-1.172C160.699 203.256 166 187.658 166 171.22V93.764c0-22.907-10.412-44.223-28.567-58.486a.838.838 0 0 1 1.036-1.315c18.562 14.582 29.207 36.379 29.207 59.801v77.456c0 16.81-5.422 32.759-15.678 46.124a.838.838 0 0 1-.666.328"/>
        <g>
            <g transform="translate(29.739 32.236)">
                <mask id="d" fill="#fff">
                    <use xlink:href="#c"/>
                </mask>
                <path fill="#E9F2E1" d="M111.973 206.551H5.525c-7.062 0-12.789-5.715-12.789-12.766V2.768c0-7.051 5.727-12.767 12.79-12.767h106.447c7.062 0 12.788 5.716 12.788 12.767v191.017c0 7.05-5.726 12.766-12.788 12.766" mask="url(#d)"/>
            </g>
            <g transform="translate(29.739 32.236)">
                <mask id="f" fill="#fff">
                    <use xlink:href="#e"/>
                </mask>
                <path fill="#8DC266" d="M54.9 49.423a.837.837 0 0 1-.84-.836v-9.34a.838.838 0 0 1 1.678 0v9.34a.837.837 0 0 1-.838.836" mask="url(#f)"/>
            </g>
            <g transform="translate(29.739 32.236)">
                <mask id="h" fill="#fff">
                    <use xlink:href="#g"/>
                </mask>
                <path fill="#8DC266" d="M64.256 49.423a.837.837 0 0 1-.839-.836v-9.34a.838.838 0 0 1 1.677 0v9.34a.836.836 0 0 1-.838.836" mask="url(#h)"/>
            </g>
            <g transform="translate(29.739 32.236)">
                <mask id="j" fill="#fff">
                    <use xlink:href="#i"/>
                </mask>
                <path fill="#8DC266" d="M73.613 49.423a.837.837 0 0 1-.839-.836v-9.34a.838.838 0 0 1 1.677 0v9.34a.837.837 0 0 1-.838.836" mask="url(#j)"/>
            </g>
            <g transform="translate(29.739 32.236)">
                <mask id="l" fill="#fff">
                    <use xlink:href="#k"/>
                </mask>
                <path fill="#8DC266" d="M45.521 170.929a.838.838 0 0 1-.838-.838V31.403a4.936 4.936 0 0 1 4.934-4.927h29.26c2.72 0 4.933 2.21 4.933 4.927v50.062a.837.837 0 0 1-1.674 0V31.403a3.259 3.259 0 0 0-3.259-3.252h-29.26a3.258 3.258 0 0 0-3.257 3.252v138.688a.838.838 0 0 1-.839.838" mask="url(#l)"/>
            </g>
            <g transform="translate(29.739 32.236)">
                <mask id="n" fill="#fff">
                    <use xlink:href="#m"/>
                </mask>
                <path fill="#8DC266" d="M111.213 173.112a.837.837 0 0 1-.839-.836V85.6a3.26 3.26 0 0 0-3.258-3.254H77.708A3.26 3.26 0 0 0 74.45 85.6v77.284a.838.838 0 0 1-1.676 0V85.6a4.936 4.936 0 0 1 4.934-4.926h29.408c2.72 0 4.935 2.21 4.935 4.926v86.676a.837.837 0 0 1-.838.836" mask="url(#n)"/>
            </g>
            <g transform="translate(29.739 32.236)">
                <mask id="p" fill="#fff">
                    <use xlink:href="#o"/>
                </mask>
                <path fill="#8DC266" d="M54.9 63.435a.838.838 0 0 1-.84-.837v-9.341a.838.838 0 0 1 1.678 0v9.34a.838.838 0 0 1-.838.838" mask="url(#p)"/>
            </g>
            <g transform="translate(29.739 32.236)">
                <mask id="r" fill="#fff">
                    <use xlink:href="#q"/>
                </mask>
                <path fill="#8DC266" d="M64.256 63.435a.838.838 0 0 1-.839-.837v-9.341a.838.838 0 0 1 1.677 0v9.34a.837.837 0 0 1-.838.838" mask="url(#r)"/>
            </g>
            <g transform="translate(29.739 32.236)">
                <mask id="t" fill="#fff">
                    <use xlink:href="#s"/>
                </mask>
                <path fill="#8DC266" d="M73.613 63.435a.838.838 0 0 1-.839-.837v-9.341a.838.838 0 0 1 1.677 0v9.34a.838.838 0 0 1-.838.838" mask="url(#t)"/>
            </g>
            <g transform="translate(29.739 32.236)">
                <mask id="v" fill="#fff">
                    <use xlink:href="#u"/>
                </mask>
                <path fill="#8DC266" d="M54.9 77.447a.838.838 0 0 1-.84-.837v-9.341c0-.462.377-.836.84-.836.462 0 .838.374.838.836v9.34a.838.838 0 0 1-.838.838" mask="url(#v)"/>
            </g>
            <g transform="translate(29.739 32.236)">
                <mask id="x" fill="#fff">
                    <use xlink:href="#w"/>
                </mask>
                <path fill="#8DC266" d="M64.256 77.447a.838.838 0 0 1-.839-.837v-9.341a.837.837 0 0 1 1.677 0v9.34a.837.837 0 0 1-.838.838" mask="url(#x)"/>
            </g>
            <g transform="translate(29.739 32.236)">
                <mask id="z" fill="#fff">
                    <use xlink:href="#y"/>
                </mask>
                <path fill="#8DC266" d="M54.9 91.458a.838.838 0 0 1-.84-.837V81.28a.838.838 0 0 1 1.678 0v9.34a.838.838 0 0 1-.838.838" mask="url(#z)"/>
            </g>
            <g transform="translate(29.739 32.236)">
                <mask id="B" fill="#fff">
                    <use xlink:href="#A"/>
                </mask>
                <path fill="#8DC266" d="M64.256 91.458a.838.838 0 0 1-.839-.837V81.28a.838.838 0 0 1 1.677 0v9.34a.837.837 0 0 1-.838.838" mask="url(#B)"/>
            </g>
            <g transform="translate(29.739 32.236)">
                <mask id="D" fill="#fff">
                    <use xlink:href="#C"/>
                </mask>
                <path fill="#8DC266" d="M54.9 105.47a.838.838 0 0 1-.84-.838v-9.34a.838.838 0 0 1 1.678 0v9.34a.838.838 0 0 1-.838.837" mask="url(#D)"/>
            </g>
            <g transform="translate(29.739 32.236)">
                <mask id="F" fill="#fff">
                    <use xlink:href="#E"/>
                </mask>
                <path fill="#8DC266" d="M64.256 105.47a.838.838 0 0 1-.839-.838v-9.34a.838.838 0 0 1 1.677 0v9.34a.837.837 0 0 1-.838.837" mask="url(#F)"/>
            </g>
            <g transform="translate(29.739 32.236)">
                <mask id="H" fill="#fff">
                    <use xlink:href="#G"/>
                </mask>
                <path fill="#8DC266" d="M54.9 119.48a.838.838 0 0 1-.84-.837v-9.341a.838.838 0 0 1 1.678 0v9.34a.838.838 0 0 1-.838.838" mask="url(#H)"/>
            </g>
            <g transform="translate(29.739 32.236)">
                <mask id="J" fill="#fff">
                    <use xlink:href="#I"/>
                </mask>
                <path fill="#8DC266" d="M64.545 133.491a.836.836 0 0 1-.837-.836v-9.34a.837.837 0 0 1 1.676 0v9.34a.837.837 0 0 1-.839.836" mask="url(#J)"/>
            </g>
            <g transform="translate(29.739 32.236)">
                <mask id="L" fill="#fff">
                    <use xlink:href="#K"/>
                </mask>
                <path fill="#8DC266" d="M64.545 147.684a.836.836 0 0 1-.837-.836v-9.341a.837.837 0 0 1 1.676 0v9.34a.837.837 0 0 1-.839.837" mask="url(#L)"/>
            </g>
            <g transform="translate(29.739 32.236)">
                <mask id="N" fill="#fff">
                    <use xlink:href="#M"/>
                </mask>
                <path fill="#8DC266" d="M64.256 119.48a.838.838 0 0 1-.839-.837v-9.341a.838.838 0 0 1 1.677 0v9.34a.837.837 0 0 1-.838.838" mask="url(#N)"/>
            </g>
            <g transform="translate(29.739 32.236)">
                <mask id="P" fill="#fff">
                    <use xlink:href="#O"/>
                </mask>
                <path fill="#8DC266" d="M73.613 77.447a.838.838 0 0 1-.839-.837v-9.341c0-.462.376-.836.839-.836.463 0 .838.374.838.836v9.34a.838.838 0 0 1-.838.838" mask="url(#P)"/>
            </g>
            <g transform="translate(29.739 32.236)">
                <mask id="R" fill="#fff">
                    <use xlink:href="#Q"/>
                </mask>
                <path fill="#8DC266" d="M82.925 105.456a.838.838 0 0 1-.839-.837v-14.01a.838.838 0 0 1 1.677 0v14.01a.838.838 0 0 1-.838.837" mask="url(#R)"/>
            </g>
            <g transform="translate(29.739 32.236)">
                <mask id="T" fill="#fff">
                    <use xlink:href="#S"/>
                </mask>
                <path fill="#8DC266" d="M92.281 105.456a.838.838 0 0 1-.838-.837v-14.01a.838.838 0 0 1 1.676 0v14.01a.837.837 0 0 1-.838.837" mask="url(#T)"/>
            </g>
            <g transform="translate(29.739 32.236)">
                <mask id="V" fill="#fff">
                    <use xlink:href="#U"/>
                </mask>
                <path fill="#8DC266" d="M101.638 105.456a.838.838 0 0 1-.839-.837v-14.01a.838.838 0 0 1 1.677 0v14.01a.838.838 0 0 1-.838.837" mask="url(#V)"/>
            </g>
            <g transform="translate(29.739 32.236)">
                <mask id="X" fill="#fff">
                    <use xlink:href="#W"/>
                </mask>
                <path fill="#8DC266" d="M82.925 119.467a.838.838 0 0 1-.839-.837v-9.338a.838.838 0 0 1 1.677 0v9.338a.838.838 0 0 1-.838.837" mask="url(#X)"/>
            </g>
            <g transform="translate(29.739 32.236)">
                <mask id="Z" fill="#fff">
                    <use xlink:href="#Y"/>
                </mask>
                <path fill="#8DC266" d="M92.281 119.467a.838.838 0 0 1-.838-.837v-9.338a.838.838 0 0 1 1.676 0v9.338a.837.837 0 0 1-.838.837" mask="url(#Z)"/>
            </g>
            <g transform="translate(29.739 32.236)">
                <mask id="ab" fill="#fff">
                    <use xlink:href="#aa"/>
                </mask>
                <path fill="#8DC266" d="M101.638 119.467a.838.838 0 0 1-.839-.837v-9.338a.838.838 0 0 1 1.677 0v9.338a.838.838 0 0 1-.838.837" mask="url(#ab)"/>
            </g>
            <g transform="translate(29.739 32.236)">
                <mask id="ad" fill="#fff">
                    <use xlink:href="#ac"/>
                </mask>
                <path fill="#8DC266" d="M82.925 133.479a.838.838 0 0 1-.839-.837v-9.339a.838.838 0 0 1 1.677 0v9.339a.838.838 0 0 1-.838.837" mask="url(#ad)"/>
            </g>
            <g transform="translate(29.739 32.236)">
                <mask id="af" fill="#fff">
                    <use xlink:href="#ae"/>
                </mask>
                <path fill="#8DC266" d="M92.281 133.479a.838.838 0 0 1-.838-.837v-9.339a.838.838 0 0 1 1.676 0v9.339a.837.837 0 0 1-.838.837" mask="url(#af)"/>
            </g>
            <g transform="translate(29.739 32.236)">
                <mask id="ah" fill="#fff">
                    <use xlink:href="#ag"/>
                </mask>
                <path fill="#8DC266" d="M101.638 133.479a.838.838 0 0 1-.839-.837v-9.339a.838.838 0 0 1 1.677 0v9.339a.838.838 0 0 1-.838.837" mask="url(#ah)"/>
            </g>
            <g transform="translate(29.739 32.236)">
                <mask id="aj" fill="#fff">
                    <use xlink:href="#ai"/>
                </mask>
                <path fill="#8DC266" d="M82.925 147.49a.838.838 0 0 1-.839-.837v-9.34a.838.838 0 0 1 1.677 0v9.34a.838.838 0 0 1-.838.838" mask="url(#aj)"/>
            </g>
            <g transform="translate(29.739 32.236)">
                <mask id="al" fill="#fff">
                    <use xlink:href="#ak"/>
                </mask>
                <path fill="#8DC266" d="M92.281 147.49a.838.838 0 0 1-.838-.837v-9.34a.838.838 0 0 1 1.676 0v9.34a.837.837 0 0 1-.838.838" mask="url(#al)"/>
            </g>
            <g transform="translate(29.739 32.236)">
                <mask id="an" fill="#fff">
                    <use xlink:href="#am"/>
                </mask>
                <path fill="#8DC266" d="M101.638 147.49a.838.838 0 0 1-.839-.837v-9.34a.838.838 0 0 1 1.677 0v9.34a.838.838 0 0 1-.838.838" mask="url(#an)"/>
            </g>
            <g transform="translate(29.739 32.236)">
                <mask id="ap" fill="#fff">
                    <use xlink:href="#ao"/>
                </mask>
                <path fill="#E9F2E1" d="M33.706 110.254c-12.902 0-23.361 10.44-23.361 23.32s10.46 23.322 23.361 23.322c12.903 0 23.362-10.442 23.362-23.323 0-12.878-10.459-23.319-23.362-23.319" mask="url(#ap)"/>
            </g>
            <g transform="translate(29.739 32.236)">
                <mask id="ar" fill="#fff">
                    <use xlink:href="#aq"/>
                </mask>
                <path fill="#8DC266" d="M33.706 111.091c-12.419 0-22.523 10.085-22.523 22.483 0 12.399 10.104 22.485 22.523 22.485s22.523-10.086 22.523-22.485c0-12.398-10.104-22.483-22.523-22.483m0 46.641c-13.343 0-24.199-10.837-24.199-24.158 0-13.32 10.856-24.156 24.2-24.156 13.342 0 24.198 10.836 24.198 24.156 0 13.321-10.856 24.158-24.199 24.158" mask="url(#ar)"/>
            </g>
            <g transform="translate(29.739 32.236)">
                <mask id="at" fill="#fff">
                    <use xlink:href="#as"/>
                </mask>
                <path fill="#8DC266" d="M33.706 144.678c-5.011 0-9.09-4.07-9.09-9.074v-1.936c0-.463.376-.837.838-.837.464 0 .839.374.839.837v1.936c0 4.081 3.325 7.401 7.413 7.401 4.087 0 7.413-3.32 7.413-7.401v-1.936a.837.837 0 1 1 1.676 0v1.936c0 5.004-4.077 9.074-9.089 9.074" mask="url(#at)"/>
            </g>
            <g transform="translate(29.739 32.236)">
                <mask id="av" fill="#fff">
                    <use xlink:href="#au"/>
                </mask>
                <path fill="#8DC266" d="M33.706 181.826a.838.838 0 0 1-.838-.837V126.1a.838.838 0 0 1 1.677 0v54.889a.838.838 0 0 1-.839.837" mask="url(#av)"/>
            </g>
            <g transform="translate(29.739 32.236)">
                <mask id="ax" fill="#fff">
                    <use xlink:href="#aw"/>
                </mask>
                <path fill="#E9F2E1" d="M90.244 156.727a14.544 14.544 0 0 0-12.941 7.85l-.302.581-.51-.41c-2.144-1.731-6.04-2.637-8.782-2.637-9.357 0-13.631 5.293-15.24 7.284-.157.196-.275.35-.366.442l-1.615 1.623 2.07.976c2.848 1.341 2.743 1.928 2.235 4.747-.247 1.372-.556 3.086-.484 5.219l.057 1.64 1.641-.081 59.48-2.989 2.227-.113-.797-2.08c-1.622-4.222-5.049-9.227-12.218-9.607-.04-.185-.08-.367-.119-.536-1.266-6.903-7.288-11.91-14.336-11.91" mask="url(#ax)"/>
            </g>
            <g transform="translate(29.739 32.236)">
                <mask id="az" fill="#fff">
                    <use xlink:href="#ay"/>
                </mask>
                <path fill="#8DC266" d="M51.918 171.21l.998.47c3.272 1.54 3.253 2.584 2.701 5.65-.24 1.334-.539 2.995-.471 5.044l.027.792 61.346-3.083-.385-1.003c-1.513-3.942-4.735-8.714-11.48-9.072l-.644-.034-.13-.63c-.039-.18-.078-.356-.116-.517a13.728 13.728 0 0 0-13.52-11.264 13.71 13.71 0 0 0-12.198 7.4l-.775 1.487-1.306-1.052c-1.972-1.59-5.726-2.45-8.256-2.45-8.956 0-13.047 5.065-14.588 6.972l-.09.113c-.134.169-.244.3-.33.388l-.783.789zm1.639 13.71l-.086-2.49c-.074-2.227.243-3.983.497-5.397.49-2.72.5-2.772-1.767-3.84l-3.143-1.482 2.45-2.464c.054-.055.123-.145.212-.256l.095-.12c1.68-2.079 6.136-7.597 15.894-7.597 2.69 0 6.587.816 9.019 2.6a15.377 15.377 0 0 1 13.515-7.984c7.412 0 13.763 5.249 15.142 12.494 7.206.66 10.67 5.818 12.314 10.097l1.21 3.155-65.352 3.285z" mask="url(#az)"/>
            </g>
            <g transform="translate(29.739 32.236)">
                <mask id="aB" fill="#fff">
                    <use xlink:href="#aA"/>
                </mask>
                <path fill="#E9F2E1" d="M18.145 164.473c-6.44 0-12.225 3.71-14.069 9.021-.753 2.175-.818 4.352-.195 6.483l.024.082.34 1.162H63.921l-.085-1.695c-.293-5.919-5.213-11.16-12.536-13.353-.31-.094-.964-.281-1.251-.352a21.002 21.002 0 0 0-5.05-.616c-4.917 0-9.523 1.674-12.972 4.715l-1.06.934-.844-1.033c-1.941-2.371-4.679-4.05-7.919-4.853a16.887 16.887 0 0 0-4.06-.495" mask="url(#aB)"/>
            </g>
            <g transform="translate(29.739 32.236)">
                <mask id="aD" fill="#fff">
                    <use xlink:href="#aC"/>
                </mask>
                <path fill="#8DC266" d="M4.873 180.385h58.168l-.04-.817c-.277-5.56-4.963-10.504-11.94-12.594a37.51 37.51 0 0 0-1.214-.342 20.168 20.168 0 0 0-4.848-.59c-4.712 0-9.123 1.6-12.416 4.505l-1.714 1.51-1.394-1.707c-1.827-2.231-4.41-3.812-7.473-4.57a15.973 15.973 0 0 0-3.857-.47c-6.088 0-11.548 3.477-13.277 8.459-.694 2.003-.756 4.014-.183 5.973l.188.643zm59.928 1.673H3.616l-.515-1.766c-.696-2.381-.627-4.732.184-7.07 1.96-5.645 8.069-9.586 14.86-9.586 1.437 0 2.871.175 4.262.52 3.415.847 6.308 2.622 8.366 5.136l.294.36.408-.359c3.6-3.175 8.402-4.924 13.524-4.924 1.773 0 3.54.216 5.253.64.295.073.97.266 1.29.362 7.667 2.298 12.821 7.838 13.13 14.113l.129 2.574z" mask="url(#aD)"/>
            </g>
            <g transform="translate(29.739 32.236)">
                <mask id="aF" fill="#fff">
                    <use xlink:href="#aE"/>
                </mask>
                <path fill="#E9F2E1" d="M148.63 179.288H-18.489l-.34 28.73h165.791z" mask="url(#aF)"/>
            </g>
            <g transform="translate(29.739 32.236)">
                <mask id="aH" fill="#fff">
                    <use xlink:href="#aG"/>
                </mask>
                <path fill="#8DC266" d="M-17.982 207.182h164.155l1.569-27.057H-17.66l-.322 27.057zm165.735 1.673h-167.43l.36-30.403H149.52l-1.766 30.403z" mask="url(#aH)"/>
            </g>
            <g transform="translate(29.739 32.236)">
                <mask id="aJ" fill="#fff">
                    <use xlink:href="#aI"/>
                </mask>
                <path fill="#8DC266" d="M101.326 190.665h-87.7a.838.838 0 1 1 0-1.674h87.7a.838.838 0 0 1 0 1.673" mask="url(#aJ)"/>
            </g>
        </g>
        <g fill="#4C4C4B">
            <path d="M90.99 34.12c-33.039 0-59.918 25.542-59.918 56.94v82.562c0 31.397 26.88 56.942 59.919 56.942 33.04 0 59.92-25.545 59.92-56.942V91.06c0-31.398-26.88-56.94-59.92-56.94m0 198.117c-33.964 0-61.595-26.295-61.595-58.615V91.06c0-32.32 27.63-58.614 61.595-58.614 33.963 0 61.595 26.294 61.595 58.614v82.562c0 32.32-27.632 58.615-61.595 58.615M43.493 229.245l-1.048 1.097-6.565-6.254-1.404 1.47 6.689 6.37-1.065 1.115-8.054-7.672 5.919-6.19 8.053 7.67-1.065 1.114-6.69-6.37-1.335 1.396zM60.893 245.671l-1.678-.887 3.36-6.327-7.75 4.004-2.271-1.201-1.033-8.65-3.359 6.327-1.665-.881 4.012-7.558 2.736 1.447 1.027 8.897 7.961-4.142 2.672 1.413zM80.769 245.523l-.318 1.482-8.872-1.891-.424 1.984 9.04 1.927-.322 1.506-10.884-2.32 1.79-8.368 10.883 2.32-.322 1.507-9.04-1.928-.404 1.89zM89.48 246.843l5.302-.156c1.335-.04 1.906-.24 2.19-.541.19-.202.293-.462.28-.878-.01-.39-.13-.68-.356-.895-.303-.284-.809-.416-2.18-.375l-5.315.156.08 2.689zm5.154-4.384c2.399-.072 3.169.249 3.799.842.478.45.683 1.142.704 1.863.022.722-.143 1.387-.641 1.915-.452.479-1.151.89-2.788 1.049l4.687 2.688v.036l-2.864.085-4.614-2.702-3.393.1.084 2.835-1.898.056-.252-8.556 7.176-.211zM109.391 245.386l5.212-1.49-3.714-3.093-1.498 4.583zm2.484-5.984l8.1 6.629-2.093.6-1.874-1.562-7.186 2.055-.763 2.315-2.011.574 3.356-9.905 2.471-.706zM134.58 236.532l.776 1.36-9.136 5.197-4.243-7.431 1.649-.938 3.467 6.072zM144.756 228.194c1.465-1.371 1.974-2.35 1.995-3.024.02-.623-.23-1.21-.816-1.834-.586-.626-1.157-.912-1.78-.93-.676-.023-1.687.42-3.153 1.792l-3.163 2.96 3.753 3.998 3.164-2.962zm3.771-3.278c-.03.95-.553 2.378-2.688 4.377l-4.575 4.283-5.866-6.244 4.575-4.283c2.136-1.999 3.596-2.427 4.55-2.398 1.09.036 2.001.523 2.806 1.38.805.856 1.234 1.796 1.198 2.885zM60.74 26.549l.744 1.376-9.252 4.98-4.065-7.527 1.67-.898 3.321 6.15zM66.908 26.029l-2.706-8.116 1.8-.598 2.706 8.115zM81.962 22.608l-2.426.33-6.947-7.731 2.182-.298 5.849 6.65 3.862-7.973 2.099-.286zM93.093 22.092l.4-8.546 1.895.089-.4 8.545zM112.16 23.471l1.624-6.71 1.832.44-2.011 8.315-2.581-.622-5.964-8.666-1.652 6.83-1.832-.44 2.01-8.316 2.714.655zM132.807 29.595l-.466.861c-.57 1.052-1.195 1.592-2.041 1.843-1.046.311-2.656.124-5.338-1.324-3.06-1.65-3.943-2.947-4.27-4.04-.281-.945-.176-2.012.423-3.12.56-1.032 1.378-1.772 2.39-2.074 1.094-.325 2.854-.183 5.72 1.365 2.282 1.231 3.833 2.581 4.498 3.538l-.827 1.526c-.767-1.178-2.322-2.6-4.401-3.72-2.089-1.13-3.402-1.35-4.165-1.123-.615.182-1.115.62-1.535 1.395-.442.816-.507 1.476-.333 2.055.227.763.922 1.665 3.204 2.897 1.81.977 3.126 1.27 3.79 1.072.449-.133.713-.365.917-.741l-4.632-2.5.722-1.333 6.344 3.423z"/>
        </g>
    </g>
</svg>
