<svg xmlns="http://www.w3.org/2000/svg" xmlns:xlink="http://www.w3.org/1999/xlink" width="298" height="112" viewBox="0 0 298 112">
    <defs>
        <path id="a" d="M31.191 100.843C14.214 100.843.324 87.61.324 71.437v-41.87C.324 13.394 14.214.163 31.191.163c16.976 0 30.867 13.231 30.867 29.404v41.87"/>
        <path id="c" d="M31.191 100.843C14.214 100.843.324 87.61.324 71.437v-41.87C.324 13.394 14.214.163 31.191.163c16.976 0 30.867 13.231 30.867 29.404v41.87"/>
        <path id="e" d="M31.191 100.843C14.214 100.843.324 87.61.324 71.437v-41.87C.324 13.394 14.214.163 31.191.163c16.976 0 30.867 13.231 30.867 29.404v41.87"/>
        <path id="g" d="M31.191 100.843C14.214 100.843.324 87.61.324 71.437v-41.87C.324 13.394 14.214.163 31.191.163c16.976 0 30.867 13.231 30.867 29.404v41.87"/>
        <path id="i" d="M31.191 100.843C14.214 100.843.324 87.61.324 71.437v-41.87C.324 13.394 14.214.163 31.191.163c16.976 0 30.867 13.231 30.867 29.404v41.87"/>
        <path id="k" d="M31.191 100.843C14.214 100.843.324 87.61.324 71.437v-41.87C.324 13.394 14.214.163 31.191.163c16.976 0 30.867 13.231 30.867 29.404v41.87"/>
        <path id="m" d="M31.191 100.843C14.214 100.843.324 87.61.324 71.437v-41.87C.324 13.394 14.214.163 31.191.163c16.976 0 30.867 13.231 30.867 29.404v41.87"/>
        <path id="o" d="M31.191 100.843C14.214 100.843.324 87.61.324 71.437v-41.87C.324 13.394 14.214.163 31.191.163c16.976 0 30.867 13.231 30.867 29.404v41.87"/>
        <path id="q" d="M31.191 100.843C14.214 100.843.324 87.61.324 71.437v-41.87C.324 13.394 14.214.163 31.191.163c16.976 0 30.867 13.231 30.867 29.404v41.87"/>
        <path id="s" d="M31.191 100.843C14.214 100.843.324 87.61.324 71.437v-41.87C.324 13.394 14.214.163 31.191.163c16.976 0 30.867 13.231 30.867 29.404v41.87"/>
        <path id="u" d="M31.191 100.843C14.214 100.843.324 87.61.324 71.437v-41.87C.324 13.394 14.214.163 31.191.163c16.976 0 30.867 13.231 30.867 29.404v41.87"/>
        <path id="w" d="M31.191 100.843C14.214 100.843.324 87.61.324 71.437v-41.87C.324 13.394 14.214.163 31.191.163c16.976 0 30.867 13.231 30.867 29.404v41.87"/>
        <path id="y" d="M31.191 100.843C14.214 100.843.324 87.61.324 71.437v-41.87C.324 13.394 14.214.163 31.191.163c16.976 0 30.867 13.231 30.867 29.404v41.87"/>
        <path id="A" d="M31.191 100.843C14.214 100.843.324 87.61.324 71.437v-41.87C.324 13.394 14.214.163 31.191.163c16.976 0 30.867 13.231 30.867 29.404v41.87"/>
        <path id="C" d="M31.191 100.843C14.214 100.843.324 87.61.324 71.437v-41.87C.324 13.394 14.214.163 31.191.163c16.976 0 30.867 13.231 30.867 29.404v41.87"/>
        <path id="E" d="M31.191 100.843C14.214 100.843.324 87.61.324 71.437v-41.87C.324 13.394 14.214.163 31.191.163c16.976 0 30.867 13.231 30.867 29.404v41.87"/>
        <path id="G" d="M31.191 100.843C14.214 100.843.324 87.61.324 71.437v-41.87C.324 13.394 14.214.163 31.191.163c16.976 0 30.867 13.231 30.867 29.404v41.87"/>
        <path id="I" d="M31.191 100.843C14.214 100.843.324 87.61.324 71.437v-41.87C.324 13.394 14.214.163 31.191.163c16.976 0 30.867 13.231 30.867 29.404v41.87"/>
        <path id="K" d="M31.191 100.843C14.214 100.843.324 87.61.324 71.437v-41.87C.324 13.394 14.214.163 31.191.163c16.976 0 30.867 13.231 30.867 29.404v41.87"/>
        <path id="M" d="M31.191 100.843C14.214 100.843.324 87.61.324 71.437v-41.87C.324 13.394 14.214.163 31.191.163c16.976 0 30.867 13.231 30.867 29.404v41.87"/>
        <path id="O" d="M31.191 100.843C14.214 100.843.324 87.61.324 71.437v-41.87C.324 13.394 14.214.163 31.191.163c16.976 0 30.867 13.231 30.867 29.404v41.87"/>
        <path id="Q" d="M31.191 100.843C14.214 100.843.324 87.61.324 71.437v-41.87C.324 13.394 14.214.163 31.191.163c16.976 0 30.867 13.231 30.867 29.404v41.87"/>
        <path id="S" d="M31.191 100.843C14.214 100.843.324 87.61.324 71.437v-41.87C.324 13.394 14.214.163 31.191.163c16.976 0 30.867 13.231 30.867 29.404v41.87"/>
        <path id="U" d="M31.191 100.843C14.214 100.843.324 87.61.324 71.437v-41.87C.324 13.394 14.214.163 31.191.163c16.976 0 30.867 13.231 30.867 29.404v41.87"/>
        <path id="W" d="M31.191 100.843C14.214 100.843.324 87.61.324 71.437v-41.87C.324 13.394 14.214.163 31.191.163c16.976 0 30.867 13.231 30.867 29.404v41.87"/>
        <path id="Y" d="M31.191 100.843C14.214 100.843.324 87.61.324 71.437v-41.87C.324 13.394 14.214.163 31.191.163c16.976 0 30.867 13.231 30.867 29.404v41.87"/>
        <path id="aa" d="M31.191 100.843C14.214 100.843.324 87.61.324 71.437v-41.87C.324 13.394 14.214.163 31.191.163c16.976 0 30.867 13.231 30.867 29.404v41.87"/>
        <path id="ac" d="M31.191 100.843C14.214 100.843.324 87.61.324 71.437v-41.87C.324 13.394 14.214.163 31.191.163c16.976 0 30.867 13.231 30.867 29.404v41.87"/>
        <path id="ae" d="M31.191 100.843C14.214 100.843.324 87.61.324 71.437v-41.87C.324 13.394 14.214.163 31.191.163c16.976 0 30.867 13.231 30.867 29.404v41.87"/>
        <path id="ag" d="M31.191 100.843C14.214 100.843.324 87.61.324 71.437v-41.87C.324 13.394 14.214.163 31.191.163c16.976 0 30.867 13.231 30.867 29.404v41.87"/>
        <path id="ai" d="M31.191 100.843C14.214 100.843.324 87.61.324 71.437v-41.87C.324 13.394 14.214.163 31.191.163c16.976 0 30.867 13.231 30.867 29.404v41.87"/>
        <path id="ak" d="M31.191 100.843C14.214 100.843.324 87.61.324 71.437v-41.87C.324 13.394 14.214.163 31.191.163c16.976 0 30.867 13.231 30.867 29.404v41.87"/>
        <path id="am" d="M31.191 100.843C14.214 100.843.324 87.61.324 71.437v-41.87C.324 13.394 14.214.163 31.191.163c16.976 0 30.867 13.231 30.867 29.404v41.87"/>
        <path id="ao" d="M31.191 100.843C14.214 100.843.324 87.61.324 71.437v-41.87C.324 13.394 14.214.163 31.191.163c16.976 0 30.867 13.231 30.867 29.404v41.87"/>
        <path id="aq" d="M31.191 100.843C14.214 100.843.324 87.61.324 71.437v-41.87C.324 13.394 14.214.163 31.191.163c16.976 0 30.867 13.231 30.867 29.404v41.87"/>
        <path id="as" d="M31.191 100.843C14.214 100.843.324 87.61.324 71.437v-41.87C.324 13.394 14.214.163 31.191.163c16.976 0 30.867 13.231 30.867 29.404v41.87"/>
        <path id="au" d="M31.191 100.843C14.214 100.843.324 87.61.324 71.437v-41.87C.324 13.394 14.214.163 31.191.163c16.976 0 30.867 13.231 30.867 29.404v41.87"/>
        <path id="aw" d="M31.191 100.843C14.214 100.843.324 87.61.324 71.437v-41.87C.324 13.394 14.214.163 31.191.163c16.976 0 30.867 13.231 30.867 29.404v41.87c0 16.173-13.891 29.406-30.867 29.406z"/>
        <path id="ay" d="M31.191 100.843C14.214 100.843.324 87.61.324 71.437v-41.87C.324 13.394 14.214.163 31.191.163c16.976 0 30.867 13.231 30.867 29.404v41.87c0 16.173-13.891 29.406-30.867 29.406z"/>
        <path id="aA" d="M31.191 100.843C14.214 100.843.324 87.61.324 71.437v-41.87C.324 13.394 14.214.163 31.191.163c16.976 0 30.867 13.231 30.867 29.404v41.87"/>
        <path id="aC" d="M0 111.458h301.034V0H0z"/>
    </defs>
    <g fill="none" fill-rule="evenodd" transform="translate(-4)">
        <path fill="#FFF" d="M41.191.963c19.716 0 35.756 15.28 35.756 34.063v41.87c0 18.782-16.04 34.062-35.756 34.062S5.434 95.678 5.434 76.896v-41.87C5.434 16.244 21.475.963 41.191.963"/>
        <path stroke="#4C4C4B" d="M41.191.963c19.716 0 35.756 15.28 35.756 34.063v41.87c0 18.782-16.04 34.062-35.756 34.062S5.434 95.678 5.434 76.896v-41.87C5.434 16.244 21.475.963 41.191.963"/>
        <g transform="translate(10 5.458)">
            <mask id="b" fill="#fff">
                <use xlink:href="#a"/>
            </mask>
            <path fill="#E9F2E1" d="M46.559 104.601h-33.28c-9.331 0-16.897-7.565-16.897-16.898V11.44c0-9.332 7.566-16.898 16.898-16.898h33.279c9.332 0 16.897 7.566 16.897 16.898v76.264c0 9.333-7.565 16.898-16.897 16.898" mask="url(#b)"/>
        </g>
        <g transform="translate(10 5.458)">
            <mask id="d" fill="#fff">
                <use xlink:href="#c"/>
            </mask>
            <path stroke="#789844" stroke-linecap="round" d="M27.964 19.457v4.754" mask="url(#d)"/>
        </g>
        <g transform="translate(10 5.458)">
            <mask id="f" fill="#fff">
                <use xlink:href="#e"/>
            </mask>
            <path stroke="#789844" stroke-linecap="round" d="M32.717 19.457v4.754" mask="url(#f)"/>
        </g>
        <g transform="translate(10 5.458)">
            <mask id="h" fill="#fff">
                <use xlink:href="#g"/>
            </mask>
            <path stroke="#789844" stroke-linecap="round" d="M37.47 19.457v4.754" mask="url(#h)"/>
        </g>
        <g transform="translate(10 5.458)">
            <mask id="j" fill="#fff">
                <use xlink:href="#i"/>
            </mask>
            <path stroke="#789844" stroke-linecap="round" d="M23.199 86.046V17.972a2.08 2.08 0 0 1 2.081-2.081h14.865a2.08 2.08 0 0 1 2.081 2.08v23.974" mask="url(#j)"/>
        </g>
        <g transform="translate(10 5.458)">
            <mask id="l" fill="#fff">
                <use xlink:href="#k"/>
            </mask>
            <path stroke="#789844" stroke-linecap="round" d="M56.573 87.157V44.05a2.08 2.08 0 0 0-2.081-2.081h-14.94c-1.15 0-2.082.931-2.082 2.081v38.328" mask="url(#l)"/>
        </g>
        <g transform="translate(10 5.458)">
            <mask id="n" fill="#fff">
                <use xlink:href="#m"/>
            </mask>
            <path stroke="#789844" stroke-linecap="round" d="M27.964 26.587v4.754" mask="url(#n)"/>
        </g>
        <g transform="translate(10 5.458)">
            <mask id="p" fill="#fff">
                <use xlink:href="#o"/>
            </mask>
            <path stroke="#789844" stroke-linecap="round" d="M32.717 26.587v4.754" mask="url(#p)"/>
        </g>
        <g transform="translate(10 5.458)">
            <mask id="r" fill="#fff">
                <use xlink:href="#q"/>
            </mask>
            <path stroke="#789844" stroke-linecap="round" d="M37.47 26.587v4.754" mask="url(#r)"/>
        </g>
        <g transform="translate(10 5.458)">
            <mask id="t" fill="#fff">
                <use xlink:href="#s"/>
            </mask>
            <path stroke="#789844" stroke-linecap="round" d="M27.964 33.718v4.753" mask="url(#t)"/>
        </g>
        <g transform="translate(10 5.458)">
            <mask id="v" fill="#fff">
                <use xlink:href="#u"/>
            </mask>
            <path stroke="#789844" stroke-linecap="round" d="M32.717 33.718v4.753" mask="url(#v)"/>
        </g>
        <g transform="translate(10 5.458)">
            <mask id="x" fill="#fff">
                <use xlink:href="#w"/>
            </mask>
            <path stroke="#789844" stroke-linecap="round" d="M27.964 40.848v4.754" mask="url(#x)"/>
        </g>
        <g transform="translate(10 5.458)">
            <mask id="z" fill="#fff">
                <use xlink:href="#y"/>
            </mask>
            <path stroke="#789844" stroke-linecap="round" d="M32.717 40.848v4.754" mask="url(#z)"/>
        </g>
        <g transform="translate(10 5.458)">
            <mask id="B" fill="#fff">
                <use xlink:href="#A"/>
            </mask>
            <path stroke="#789844" stroke-linecap="round" d="M27.964 47.98v4.753" mask="url(#B)"/>
        </g>
        <g transform="translate(10 5.458)">
            <mask id="D" fill="#fff">
                <use xlink:href="#C"/>
            </mask>
            <path stroke="#789844" stroke-linecap="round" d="M32.717 47.98v4.753" mask="url(#D)"/>
        </g>
        <g transform="translate(10 5.458)">
            <mask id="F" fill="#fff">
                <use xlink:href="#E"/>
            </mask>
            <path stroke="#789844" stroke-linecap="round" d="M27.964 55.11v4.753" mask="url(#F)"/>
        </g>
        <g transform="translate(10 5.458)">
            <mask id="H" fill="#fff">
                <use xlink:href="#G"/>
            </mask>
            <path stroke="#789844" stroke-linecap="round" d="M32.864 62.24v4.754" mask="url(#H)"/>
        </g>
        <g transform="translate(10 5.458)">
            <mask id="J" fill="#fff">
                <use xlink:href="#I"/>
            </mask>
            <path stroke="#789844" stroke-linecap="round" d="M32.864 69.463v4.754" mask="url(#J)"/>
        </g>
        <g transform="translate(10 5.458)">
            <mask id="L" fill="#fff">
                <use xlink:href="#K"/>
            </mask>
            <path stroke="#789844" stroke-linecap="round" d="M32.717 55.11v4.753" mask="url(#L)"/>
        </g>
        <g transform="translate(10 5.458)">
            <mask id="N" fill="#fff">
                <use xlink:href="#M"/>
            </mask>
            <path stroke="#789844" stroke-linecap="round" d="M37.47 33.718v4.753" mask="url(#N)"/>
        </g>
        <g transform="translate(10 5.458)">
            <mask id="P" fill="#fff">
                <use xlink:href="#O"/>
            </mask>
            <path stroke="#789844" stroke-linecap="round" d="M42.201 45.596v7.13" mask="url(#P)"/>
        </g>
        <g transform="translate(10 5.458)">
            <mask id="R" fill="#fff">
                <use xlink:href="#Q"/>
            </mask>
            <path stroke="#789844" stroke-linecap="round" d="M46.955 45.596v7.13" mask="url(#R)"/>
        </g>
        <g transform="translate(10 5.458)">
            <mask id="T" fill="#fff">
                <use xlink:href="#S"/>
            </mask>
            <path stroke="#789844" stroke-linecap="round" d="M51.709 45.596v7.13" mask="url(#T)"/>
        </g>
        <g transform="translate(10 5.458)">
            <mask id="V" fill="#fff">
                <use xlink:href="#U"/>
            </mask>
            <path stroke="#789844" stroke-linecap="round" d="M42.201 55.103v4.754" mask="url(#V)"/>
        </g>
        <g transform="translate(10 5.458)">
            <mask id="X" fill="#fff">
                <use xlink:href="#W"/>
            </mask>
            <path stroke="#789844" stroke-linecap="round" d="M46.955 55.103v4.754" mask="url(#X)"/>
        </g>
        <g transform="translate(10 5.458)">
            <mask id="Z" fill="#fff">
                <use xlink:href="#Y"/>
            </mask>
            <path stroke="#789844" stroke-linecap="round" d="M51.709 55.103v4.754" mask="url(#Z)"/>
        </g>
        <g transform="translate(10 5.458)">
            <mask id="ab" fill="#fff">
                <use xlink:href="#aa"/>
            </mask>
            <path stroke="#789844" stroke-linecap="round" d="M42.201 62.234v4.753" mask="url(#ab)"/>
        </g>
        <g transform="translate(10 5.458)">
            <mask id="ad" fill="#fff">
                <use xlink:href="#ac"/>
            </mask>
            <path stroke="#789844" stroke-linecap="round" d="M46.955 62.234v4.753" mask="url(#ad)"/>
        </g>
        <g transform="translate(10 5.458)">
            <mask id="af" fill="#fff">
                <use xlink:href="#ae"/>
            </mask>
            <path stroke="#789844" stroke-linecap="round" d="M51.709 62.234v4.753" mask="url(#af)"/>
        </g>
        <g transform="translate(10 5.458)">
            <mask id="ah" fill="#fff">
                <use xlink:href="#ag"/>
            </mask>
            <path stroke="#789844" stroke-linecap="round" d="M42.201 69.364v4.754" mask="url(#ah)"/>
        </g>
        <g transform="translate(10 5.458)">
            <mask id="aj" fill="#fff">
                <use xlink:href="#ai"/>
            </mask>
            <path stroke="#789844" stroke-linecap="round" d="M46.955 69.364v4.754" mask="url(#aj)"/>
        </g>
        <g transform="translate(10 5.458)">
            <mask id="al" fill="#fff">
                <use xlink:href="#ak"/>
            </mask>
            <path stroke="#789844" stroke-linecap="round" d="M51.709 69.364v4.754" mask="url(#al)"/>
        </g>
        <g transform="translate(10 5.458)">
            <mask id="an" fill="#fff">
                <use xlink:href="#am"/>
            </mask>
            <path fill="#E9F2E1" d="M17.197 55.593c-6.555 0-11.87 5.313-11.87 11.868 0 6.555 5.315 11.87 11.87 11.87 6.555 0 11.868-5.315 11.868-11.87 0-6.554-5.313-11.867-11.868-11.867" mask="url(#an)"/>
            <path stroke="#779743" d="M17.197 55.593c-6.555 0-11.87 5.313-11.87 11.868 0 6.555 5.315 11.87 11.87 11.87 6.555 0 11.868-5.315 11.868-11.87 0-6.554-5.313-11.867-11.868-11.867" mask="url(#an)"/>
        </g>
        <g transform="translate(10 5.458)">
            <mask id="ap" fill="#fff">
                <use xlink:href="#ao"/>
            </mask>
            <path stroke="#779743" stroke-linecap="round" d="M13.005 67.51v.984a4.192 4.192 0 1 0 8.384 0v-.984" mask="url(#ap)"/>
        </g>
        <g transform="translate(10 5.458)">
            <mask id="ar" fill="#fff">
                <use xlink:href="#aq"/>
            </mask>
            <path stroke="#779743" stroke-linecap="round" d="M17.197 63.659v27.934" mask="url(#ar)"/>
        </g>
        <g transform="translate(10 5.458)">
            <mask id="at" fill="#fff">
                <use xlink:href="#as"/>
            </mask>
            <path fill="#E9F2E1" d="M45.92 79.245a7.386 7.386 0 0 0-6.575 3.994l-.154.296-.258-.21c-1.09-.88-3.069-1.341-4.462-1.341-4.754 0-6.925 2.694-7.743 3.708-.079.099-.14.177-.185.224l-.82.827 1.051.497c1.446.682 1.393.98 1.135 2.414-.126.699-.282 1.57-.246 2.656l.03.836.833-.042 30.22-1.52 1.13-.058-.405-1.058c-.824-2.15-2.565-4.697-6.208-4.89-.019-.094-.04-.187-.059-.272a7.395 7.395 0 0 0-7.284-6.061" mask="url(#at)"/>
            <path stroke="#779743" d="M45.92 79.245a7.386 7.386 0 0 0-6.575 3.994l-.154.296-.258-.21c-1.09-.88-3.069-1.341-4.462-1.341-4.754 0-6.925 2.694-7.743 3.708-.079.099-.14.177-.185.224l-.82.827 1.051.497c1.446.682 1.393.98 1.135 2.414-.126.699-.282 1.57-.246 2.656l.03.836.833-.042 30.22-1.52 1.13-.058-.405-1.058c-.824-2.15-2.565-4.697-6.208-4.89-.019-.094-.04-.187-.059-.272a7.395 7.395 0 0 0-7.284-6.061" mask="url(#at)"/>
        </g>
        <g transform="translate(10 5.458)">
            <mask id="av" fill="#fff">
                <use xlink:href="#au"/>
            </mask>
            <path fill="#E9F2E1" d="M9.29 83.186c-3.271 0-6.21 1.89-7.146 4.592-.383 1.106-.416 2.215-.1 3.3l.013.041.172.59H32.547l-.043-.862c-.15-3.012-2.648-5.679-6.368-6.796a10.648 10.648 0 0 0-3.202-.492c-2.498 0-4.838.852-6.59 2.4l-.538.475-.43-.525c-.985-1.207-2.377-2.062-4.023-2.47a8.529 8.529 0 0 0-2.062-.253" mask="url(#av)"/>
            <path stroke="#779743" d="M9.29 83.186c-3.271 0-6.21 1.89-7.146 4.592-.383 1.106-.416 2.215-.1 3.3l.013.041.172.59H32.547l-.043-.862c-.15-3.012-2.648-5.679-6.368-6.796a10.648 10.648 0 0 0-3.202-.492c-2.498 0-4.838.852-6.59 2.4l-.538.475-.43-.525c-.985-1.207-2.377-2.062-4.023-2.47a8.529 8.529 0 0 0-2.062-.253" mask="url(#av)"/>
        </g>
        <g transform="translate(10 5.458)">
            <mask id="ax" fill="#fff">
                <use xlink:href="#aw"/>
            </mask>
            <path fill="#E9F2E1" d="M75.583 90.726H-9.32l-.174 14.622h84.23z" mask="url(#ax)"/>
        </g>
        <g transform="translate(10 5.458)">
            <mask id="az" fill="#fff">
                <use xlink:href="#ay"/>
            </mask>
            <path stroke="#789844" stroke-linecap="round" d="M75.583 90.726H-9.32l-.174 14.622h84.23z" mask="url(#az)"/>
        </g>
        <g transform="translate(10 5.458)">
            <mask id="aB" fill="#fff">
                <use xlink:href="#aA"/>
            </mask>
            <path stroke="#789844" stroke-linecap="round" d="M51.55 96.09H6.995" mask="url(#aB)"/>
        </g>
        <path stroke="#4C4C4B" d="M41.191 5.62c16.977 0 30.867 13.232 30.867 29.405v41.87c0 16.173-13.89 29.405-30.867 29.405S10.324 93.068 10.324 76.895v-41.87c0-16.173 13.89-29.404 30.867-29.404"/>
        <path fill="#E9F2E1" d="M143.437 53.636v3.148h-29.554V32.56h3.737v21.075z"/>
        <mask id="aD" fill="#fff">
            <use xlink:href="#aC"/>
        </mask>
        <path fill="#E9F2E1" d="M151.015 56.785h3.738V32.56h-3.738zM183.511 56.924h-4.845L161.605 32.56H166l15.157 21.906L196.35 32.56h4.222zM207.424 56.785h3.738V32.56h-3.738zM252.343 53.532V32.56h3.738v24.225h-5.261l-25.471-21.18v21.18h-3.702V32.56h5.467zM301.034 43.91v2.216c0 3.149-.658 5.503-2.526 7.37-2.388 2.39-6.922 3.843-14.985 3.843-9.586 0-13.601-2.007-15.885-4.291-2.007-2.042-3.114-4.914-3.114-8.375 0-3.323 1.003-6.264 3.114-8.375 2.284-2.284 6.541-4.291 15.573-4.291 7.302 0 13.012 1.349 15.954 2.768v3.495c-3.461-1.834-9.309-3.183-15.954-3.183-7.302 0-10.762 1.384-12.596 3.183-1.454 1.489-2.319 3.565-2.319 6.403 0 2.907.865 4.948 2.284 6.402 1.799 1.765 5.087 3.253 12.977 3.253 6.264 0 10.244-1.004 12.043-2.804 1.385-1.418 1.593-3.08 1.593-4.567h-16.508V43.91h20.349z" mask="url(#aD)"/>
        <path fill="#8DC266" d="M133.64 74.39v1.961h-17.345v4.904h17.656v2.007h-20.04V67.657h20.04v2.006h-17.656v4.726zM168.215 83.263h-2.408V69.35l-10.343 13.912h-3.255L141.864 69.35v13.912h-2.385V67.657h3.946l10.456 14.157 10.478-14.156h3.856zM194.409 74.39v1.961h-17.344v4.904h17.655v2.007h-20.04V67.657h20.04v2.006h-17.655v4.726zM202.655 75.795h10.434c3.12 0 4.392-.424 5.06-1.093.49-.49.714-1.114.714-2.007 0-.87-.224-1.538-.758-2.05-.67-.67-1.828-.981-5.016-.981h-10.434v6.13zm10.411-8.138c4.504 0 5.952.58 7.023 1.65.846.847 1.181 2.007 1.181 3.322s-.335 2.475-1.226 3.344c-.937.936-2.34 1.649-5.996 1.76l9.118 5.463v.067h-3.702l-9.072-5.53h-7.737v5.53h-2.407V67.657h12.819zM231.792 77.355h11.949l-5.952-8.427-5.997 8.427zm7.69-9.787l11.259 15.694h-2.808l-2.787-3.924h-14.758l-2.764 3.924h-2.676l11.258-15.694h3.277zM273.836 81.234v2.028h-19.04V67.657h2.409v13.577zM289.262 81.256c4.236 0 6.443-.802 7.468-1.827.937-.914 1.449-2.163 1.449-3.97 0-1.805-.512-3.053-1.449-3.967-1.025-1.025-3.232-1.828-7.468-1.828h-8.427v11.592h8.427zm9.318-.49c-1.27 1.27-3.834 2.497-9.274 2.497h-10.878V67.657h10.878c5.44 0 8.004 1.227 9.274 2.497 1.405 1.405 2.029 3.188 2.029 5.306s-.624 3.9-2.029 5.306z" mask="url(#aD)"/>
    </g>
</svg>
