<?xml version="1.0" encoding="utf-8"?>
<!-- Generator: Adobe Illustrator 23.0.4, SVG Export Plug-In . SVG Version: 6.00 Build 0)  -->
<svg version="1.1" id="Layer_1" xmlns="http://www.w3.org/2000/svg" xmlns:xlink="http://www.w3.org/1999/xlink" x="0px" y="0px"
	 viewBox="0 0 170.79 217.68" style="enable-background:new 0 0 170.79 217.68;" xml:space="preserve">
<style type="text/css">
	.st0{clip-path:url(#SVGID_2_);fill:#FFFFFF;}
	.st1{clip-path:url(#SVGID_2_);fill:#4C4C4B;}
	.st2{clip-path:url(#SVGID_4_);fill:#E9F2E1;}
	.st3{clip-path:url(#SVGID_4_);fill:#779743;}
	.st4{clip-path:url(#SVGID_6_);fill:#4C4C4B;}
</style>
<g>
	<defs>
		<rect id="SVGID_1_" width="170.79" height="217.68"/>
	</defs>
	<clipPath id="SVGID_2_">
		<use xlink:href="#SVGID_1_"  style="overflow:visible;"/>
	</clipPath>
	<path class="st0" d="M85.4,18.54c34.35,0,62.29,26.62,62.29,59.34v61.92c0,32.72-27.94,59.34-62.29,59.34s-62.29-26.62-62.29-59.34
		V77.87C23.11,45.16,51.05,18.54,85.4,18.54"/>
	<path class="st1" d="M85.4,199.77c-34.69,0-62.92-26.9-62.92-59.97V77.87c0-33.06,28.22-59.96,62.92-59.96
		c34.69,0,62.92,26.9,62.92,59.96v61.93C148.31,172.87,120.09,199.77,85.4,199.77 M85.4,19.16c-34,0-61.66,26.34-61.66,58.71v61.93
		c0,32.37,27.66,58.71,61.66,58.71c34,0,61.66-26.34,61.66-58.71V77.87C147.06,45.5,119.4,19.16,85.4,19.16"/>
	<path class="st1" d="M127.09,167.84c-0.13,0-0.27-0.04-0.38-0.13c-0.27-0.21-0.33-0.6-0.12-0.88c6.92-9.04,10.58-19.82,10.58-31.19
		V82.03c0-15.84-7.19-30.58-19.72-40.44c-0.27-0.21-0.32-0.61-0.1-0.88c0.21-0.27,0.61-0.32,0.88-0.1
		c12.84,10.1,20.2,25.2,20.2,41.43v53.61c0,11.64-3.75,22.69-10.84,31.95C127.47,167.76,127.28,167.84,127.09,167.84 M42.65,166.41
		c-0.2,0-0.39-0.09-0.51-0.26c-6.39-8.96-9.77-19.51-9.77-30.51V82.03c0-16.58,7.62-31.88,20.91-41.98
		c0.27-0.21,0.67-0.16,0.88,0.12c0.21,0.28,0.16,0.67-0.12,0.88c-12.97,9.86-20.41,24.79-20.41,40.98v53.61
		c0,10.74,3.3,21.03,9.54,29.78c0.2,0.28,0.14,0.68-0.15,0.88C42.9,166.37,42.77,166.41,42.65,166.41"/>
</g>
<g>
	<defs>
		<path id="SVGID_3_" d="M43.42,80.16v57.14c0,22,18.89,39.99,41.98,39.99s41.98-18,41.98-39.99V80.16
			c0-21.99-18.89-39.99-41.98-39.99S43.42,58.17,43.42,80.16"/>
	</defs>
	<clipPath id="SVGID_4_">
		<use xlink:href="#SVGID_3_"  style="overflow:visible;"/>
	</clipPath>
	<path class="st2" d="M119.32,182.41H48.01c-5.5,0-9.95-4.46-9.95-9.95V42.48c0-5.5,4.46-9.95,9.95-9.95h71.31
		c5.5,0,9.95,4.46,9.95,9.95v129.97C129.28,177.95,124.82,182.41,119.32,182.41"/>
	<path class="st3" d="M81.01,73.7c-0.35,0-0.63-0.28-0.63-0.63v-6.46c0-0.35,0.28-0.63,0.63-0.63c0.35,0,0.63,0.28,0.63,0.63v6.46
		C81.64,73.42,81.35,73.7,81.01,73.7"/>
	<path class="st3" d="M87.47,73.7c-0.35,0-0.63-0.28-0.63-0.63v-6.46c0-0.35,0.28-0.63,0.63-0.63c0.35,0,0.63,0.28,0.63,0.63v6.46
		C88.1,73.42,87.82,73.7,87.47,73.7"/>
	<path class="st3" d="M93.94,73.7c-0.35,0-0.63-0.28-0.63-0.63v-6.46c0-0.35,0.28-0.63,0.63-0.63c0.35,0,0.63,0.28,0.63,0.63v6.46
		C94.56,73.42,94.28,73.7,93.94,73.7"/>
	<path class="st3" d="M74.53,157.8c-0.35,0-0.63-0.28-0.63-0.63V61.18c0-1.91,1.55-3.46,3.46-3.46h20.22c1.91,0,3.46,1.55,3.46,3.46
		v34.65c0,0.35-0.28,0.63-0.63,0.63s-0.63-0.28-0.63-0.63V61.18c0-1.21-0.99-2.2-2.2-2.2H77.36c-1.21,0-2.2,0.99-2.2,2.2v95.99
		C75.16,157.52,74.87,157.8,74.53,157.8"/>
	<path class="st3" d="M119.92,159.31c-0.35,0-0.63-0.28-0.63-0.63V98.69c0-1.21-0.99-2.2-2.2-2.2H96.77c-1.22,0-2.2,0.99-2.2,2.2
		v53.49c0,0.35-0.28,0.63-0.63,0.63c-0.35,0-0.63-0.28-0.63-0.63V98.69c0-1.91,1.55-3.46,3.46-3.46h20.32
		c1.91,0,3.46,1.55,3.46,3.46v59.99C120.54,159.03,120.26,159.31,119.92,159.31"/>
	<path class="st3" d="M81.01,83.4c-0.35,0-0.63-0.28-0.63-0.63v-6.47c0-0.35,0.28-0.63,0.63-0.63c0.35,0,0.63,0.28,0.63,0.63v6.47
		C81.64,83.12,81.35,83.4,81.01,83.4"/>
	<path class="st3" d="M87.47,83.4c-0.35,0-0.63-0.28-0.63-0.63v-6.47c0-0.35,0.28-0.63,0.63-0.63c0.35,0,0.63,0.28,0.63,0.63v6.47
		C88.1,83.12,87.82,83.4,87.47,83.4"/>
	<path class="st3" d="M93.94,83.4c-0.35,0-0.63-0.28-0.63-0.63v-6.47c0-0.35,0.28-0.63,0.63-0.63c0.35,0,0.63,0.28,0.63,0.63v6.47
		C94.56,83.12,94.28,83.4,93.94,83.4"/>
	<path class="st3" d="M81.01,93.1c-0.35,0-0.63-0.28-0.63-0.63v-6.46c0-0.35,0.28-0.63,0.63-0.63c0.35,0,0.63,0.28,0.63,0.63v6.46
		C81.64,92.82,81.35,93.1,81.01,93.1"/>
	<path class="st3" d="M87.47,93.1c-0.35,0-0.63-0.28-0.63-0.63v-6.46c0-0.35,0.28-0.63,0.63-0.63c0.35,0,0.63,0.28,0.63,0.63v6.46
		C88.1,92.82,87.82,93.1,87.47,93.1"/>
	<path class="st3" d="M81.01,102.8c-0.35,0-0.63-0.28-0.63-0.63V95.7c0-0.35,0.28-0.63,0.63-0.63c0.35,0,0.63,0.28,0.63,0.63v6.46
		C81.64,102.52,81.35,102.8,81.01,102.8"/>
	<path class="st3" d="M87.47,102.8c-0.35,0-0.63-0.28-0.63-0.63V95.7c0-0.35,0.28-0.63,0.63-0.63c0.35,0,0.63,0.28,0.63,0.63v6.46
		C88.1,102.52,87.82,102.8,87.47,102.8"/>
	<path class="st3" d="M81.01,112.49c-0.35,0-0.63-0.28-0.63-0.63v-6.46c0-0.35,0.28-0.63,0.63-0.63c0.35,0,0.63,0.28,0.63,0.63v6.46
		C81.64,112.21,81.35,112.49,81.01,112.49"/>
	<path class="st3" d="M87.47,112.49c-0.35,0-0.63-0.28-0.63-0.63v-6.46c0-0.35,0.28-0.63,0.63-0.63c0.35,0,0.63,0.28,0.63,0.63v6.46
		C88.1,112.21,87.82,112.49,87.47,112.49"/>
	<path class="st3" d="M81.01,122.19c-0.35,0-0.63-0.28-0.63-0.63v-6.46c0-0.35,0.28-0.63,0.63-0.63c0.35,0,0.63,0.28,0.63,0.63v6.46
		C81.64,121.91,81.35,122.19,81.01,122.19"/>
	<path class="st3" d="M87.67,131.89c-0.35,0-0.63-0.28-0.63-0.63v-6.47c0-0.35,0.28-0.63,0.63-0.63c0.35,0,0.63,0.28,0.63,0.63v6.47
		C88.3,131.61,88.02,131.89,87.67,131.89"/>
	<path class="st3" d="M87.67,141.71c-0.35,0-0.63-0.28-0.63-0.63v-6.46c0-0.35,0.28-0.63,0.63-0.63c0.35,0,0.63,0.28,0.63,0.63v6.46
		C88.3,141.43,88.02,141.71,87.67,141.71"/>
	<path class="st3" d="M87.47,122.19c-0.35,0-0.63-0.28-0.63-0.63v-6.46c0-0.35,0.28-0.63,0.63-0.63c0.35,0,0.63,0.28,0.63,0.63v6.46
		C88.1,121.91,87.82,122.19,87.47,122.19"/>
	<path class="st3" d="M93.94,93.1c-0.35,0-0.63-0.28-0.63-0.63v-6.46c0-0.35,0.28-0.63,0.63-0.63c0.35,0,0.63,0.28,0.63,0.63v6.46
		C94.56,92.82,94.28,93.1,93.94,93.1"/>
	<path class="st3" d="M100.37,112.48c-0.35,0-0.63-0.28-0.63-0.63v-9.7c0-0.35,0.28-0.63,0.63-0.63c0.35,0,0.63,0.28,0.63,0.63v9.7
		C101,112.2,100.72,112.48,100.37,112.48"/>
	<path class="st3" d="M106.84,112.48c-0.35,0-0.63-0.28-0.63-0.63v-9.7c0-0.35,0.28-0.63,0.63-0.63c0.35,0,0.63,0.28,0.63,0.63v9.7
		C107.46,112.2,107.18,112.48,106.84,112.48"/>
	<path class="st3" d="M113.3,112.48c-0.35,0-0.63-0.28-0.63-0.63v-9.7c0-0.35,0.28-0.63,0.63-0.63c0.35,0,0.63,0.28,0.63,0.63v9.7
		C113.93,112.2,113.65,112.48,113.3,112.48"/>
	<path class="st3" d="M100.37,122.18c-0.35,0-0.63-0.28-0.63-0.63v-6.46c0-0.35,0.28-0.63,0.63-0.63c0.35,0,0.63,0.28,0.63,0.63
		v6.46C101,121.9,100.72,122.18,100.37,122.18"/>
	<path class="st3" d="M106.84,122.18c-0.35,0-0.63-0.28-0.63-0.63v-6.46c0-0.35,0.28-0.63,0.63-0.63c0.35,0,0.63,0.28,0.63,0.63
		v6.46C107.46,121.9,107.18,122.18,106.84,122.18"/>
	<path class="st3" d="M113.3,122.18c-0.35,0-0.63-0.28-0.63-0.63v-6.46c0-0.35,0.28-0.63,0.63-0.63c0.35,0,0.63,0.28,0.63,0.63v6.46
		C113.93,121.9,113.65,122.18,113.3,122.18"/>
	<path class="st3" d="M100.37,131.88c-0.35,0-0.63-0.28-0.63-0.63v-6.46c0-0.35,0.28-0.63,0.63-0.63c0.35,0,0.63,0.28,0.63,0.63
		v6.46C101,131.6,100.72,131.88,100.37,131.88"/>
	<path class="st3" d="M106.84,131.88c-0.35,0-0.63-0.28-0.63-0.63v-6.46c0-0.35,0.28-0.63,0.63-0.63c0.35,0,0.63,0.28,0.63,0.63
		v6.46C107.46,131.6,107.18,131.88,106.84,131.88"/>
	<path class="st3" d="M113.3,131.88c-0.35,0-0.63-0.28-0.63-0.63v-6.46c0-0.35,0.28-0.63,0.63-0.63c0.35,0,0.63,0.28,0.63,0.63v6.46
		C113.93,131.6,113.65,131.88,113.3,131.88"/>
	<path class="st3" d="M100.37,141.58c-0.35,0-0.63-0.28-0.63-0.63v-6.47c0-0.35,0.28-0.63,0.63-0.63c0.35,0,0.63,0.28,0.63,0.63
		v6.47C101,141.3,100.72,141.58,100.37,141.58"/>
	<path class="st3" d="M106.84,141.58c-0.35,0-0.63-0.28-0.63-0.63v-6.47c0-0.35,0.28-0.63,0.63-0.63c0.35,0,0.63,0.28,0.63,0.63
		v6.47C107.46,141.3,107.18,141.58,106.84,141.58"/>
	<path class="st3" d="M113.3,141.58c-0.35,0-0.63-0.28-0.63-0.63v-6.47c0-0.35,0.28-0.63,0.63-0.63c0.35,0,0.63,0.28,0.63,0.63v6.47
		C113.93,141.3,113.65,141.58,113.3,141.58"/>
	<path class="st2" d="M66.36,115.76c-8.92,0-16.14,7.23-16.14,16.14c0,8.92,7.23,16.14,16.14,16.14s16.14-7.23,16.14-16.14
		C82.5,122.98,75.28,115.76,66.36,115.76"/>
	<path class="st3" d="M66.36,148.67c-9.25,0-16.77-7.52-16.77-16.77c0-9.25,7.52-16.77,16.77-16.77c9.25,0,16.77,7.52,16.77,16.77
		C83.13,141.14,75.61,148.67,66.36,148.67 M66.36,116.38c-8.55,0-15.51,6.96-15.51,15.51s6.96,15.51,15.51,15.51
		s15.51-6.96,15.51-15.51S74.92,116.38,66.36,116.38"/>
	<path class="st3" d="M66.36,139.63c-3.49,0-6.33-2.84-6.33-6.33v-1.34c0-0.35,0.28-0.63,0.63-0.63c0.35,0,0.63,0.28,0.63,0.63v1.34
		c0,2.8,2.28,5.07,5.07,5.07c2.8,0,5.07-2.28,5.07-5.07v-1.34c0-0.35,0.28-0.63,0.63-0.63s0.63,0.28,0.63,0.63v1.34
		C72.69,136.79,69.85,139.63,66.36,139.63"/>
	<path class="st3" d="M66.36,165.34c-0.35,0-0.63-0.28-0.63-0.63v-37.99c0-0.35,0.28-0.63,0.63-0.63c0.35,0,0.63,0.28,0.63,0.63
		v37.99C66.99,165.06,66.71,165.34,66.36,165.34"/>
	<path class="st2" d="M105.43,147.92c-3.77,0-7.2,2.08-8.94,5.43l-0.21,0.4l-0.35-0.28c-1.48-1.2-4.17-1.82-6.07-1.82
		c-6.47,0-9.42,3.66-10.53,5.04c-0.11,0.13-0.19,0.24-0.25,0.3l-1.12,1.12l1.43,0.68c1.97,0.93,1.89,1.33,1.54,3.28
		c-0.17,0.95-0.38,2.14-0.33,3.61l0.04,1.14l1.13-0.06l41.1-2.07l1.54-0.08l-0.55-1.44c-1.12-2.92-3.49-6.39-8.44-6.65
		c-0.03-0.13-0.05-0.26-0.08-0.37C114.46,151.39,110.3,147.92,105.43,147.92"/>
	<path class="st3" d="M80.03,167.49l-0.06-1.77c-0.05-1.54,0.17-2.76,0.34-3.74c0.34-1.88,0.34-1.88-1.19-2.61l-2.23-1.06l1.74-1.75
		c0.03-0.04,0.08-0.1,0.14-0.17l0.07-0.08c1.16-1.44,4.25-5.28,11.02-5.28c1.85,0,4.52,0.56,6.22,1.78c1.89-3.4,5.45-5.5,9.35-5.5
		c5.13,0,9.53,3.63,10.5,8.65c4.98,0.47,7.37,4.05,8.51,7.01l0.86,2.25L80.03,167.49z M79.03,157.93l0.63,0.3
		c2.29,1.08,2.28,1.81,1.89,3.96c-0.17,0.92-0.37,2.07-0.32,3.48l0.02,0.5l0.5-0.03l41.77-2.1l-0.24-0.63
		c-1.04-2.71-3.25-6-7.89-6.25l-0.48-0.02l-0.1-0.47c-0.03-0.12-0.05-0.25-0.08-0.36c-0.83-4.51-4.73-7.76-9.29-7.76
		c-3.54,0-6.75,1.95-8.38,5.09l-0.56,1.09l-0.95-0.77c-1.35-1.09-3.93-1.68-5.67-1.68c-6.17,0-8.98,3.49-10.04,4.81l-0.06,0.08
		c-0.09,0.12-0.17,0.21-0.23,0.27L79.03,157.93z"/>
	<path class="st2" d="M55.61,153.28L55.61,153.28c-4.45,0-8.45,2.57-9.72,6.24c-0.52,1.51-0.57,3.01-0.13,4.49l0.02,0.06l0.24,0.8
		h0.84h39.22h1.17l-0.06-1.17c-0.2-4.1-3.6-7.72-8.66-9.24c-0.21-0.06-0.67-0.19-0.86-0.24c-1.14-0.28-2.31-0.43-3.49-0.43
		c-3.4,0-6.58,1.16-8.96,3.26l-0.73,0.65l-0.58-0.71c-1.34-1.64-3.23-2.8-5.47-3.36C57.5,153.4,56.56,153.28,55.61,153.28"/>
	<path class="st3" d="M87.9,165.5H45.54l-0.37-1.26c-0.48-1.66-0.44-3.3,0.13-4.92c1.36-3.93,5.6-6.67,10.31-6.67
		c1,0,1.99,0.12,2.96,0.36c2.37,0.59,4.38,1.82,5.81,3.57l0.17,0.21l0.24-0.21c2.5-2.21,5.83-3.42,9.38-3.42
		c1.23,0,2.46,0.15,3.64,0.44c0.21,0.05,0.67,0.18,0.9,0.25c5.32,1.6,8.89,5.45,9.11,9.81L87.9,165.5z M46.48,164.25h40.1
		l-0.03-0.51c-0.19-3.83-3.41-7.23-8.21-8.67c-0.21-0.06-0.64-0.19-0.84-0.24c-1.09-0.27-2.21-0.41-3.34-0.41
		c-3.24,0-6.28,1.1-8.55,3.1l-1.22,1.08l-1-1.22c-1.26-1.54-3.03-2.62-5.14-3.15c-0.87-0.21-1.76-0.32-2.65-0.32
		c-4.19,0-7.94,2.39-9.13,5.82c-0.48,1.38-0.52,2.76-0.12,4.1L46.48,164.25z"/>
	<polygon class="st2" points="145.77,163.54 30.3,163.54 30.06,183.42 144.62,183.42 	"/>
	<path class="st3" d="M145.21,184.05H29.43l0.25-21.14h116.75L145.21,184.05z M30.7,182.79h113.32l1.08-18.63H30.92L30.7,182.79z"/>
	<path class="st3" d="M113.08,171.46H52.49c-0.35,0-0.63-0.28-0.63-0.63c0-0.35,0.28-0.63,0.63-0.63h60.59
		c0.35,0,0.63,0.28,0.63,0.63C113.71,171.18,113.43,171.46,113.08,171.46"/>
</g>
<g>
	<defs>
		<rect id="SVGID_5_" width="170.79" height="217.68"/>
	</defs>
	<clipPath id="SVGID_6_">
		<use xlink:href="#SVGID_5_"  style="overflow:visible;"/>
	</clipPath>
	<path class="st4" d="M85.4,177.92c-23.49,0-42.61-18.22-42.61-40.62V80.16c0-22.4,19.11-40.62,42.61-40.62
		c23.49,0,42.61,18.22,42.61,40.62v57.14C128,159.7,108.89,177.92,85.4,177.92 M85.4,40.8c-22.8,0-41.35,17.66-41.35,39.36v57.14
		c0,21.7,18.55,39.36,41.35,39.36s41.35-17.66,41.35-39.36V80.16C126.75,58.46,108.2,40.8,85.4,40.8"/>
	<polygon class="st4" points="52.58,175.8 51.85,176.56 47.32,172.23 46.35,173.25 50.97,177.66 50.23,178.43 44.67,173.12 
		48.76,168.84 54.32,174.15 53.59,174.92 48.97,170.51 48.04,171.47 	"/>
	<polygon class="st4" points="64.6,187.17 63.44,186.56 65.76,182.18 60.41,184.95 58.84,184.12 58.13,178.13 55.81,182.51 
		54.65,181.9 57.43,176.67 59.32,177.67 60.03,183.83 65.53,180.96 67.37,181.94 	"/>
	<polygon class="st4" points="78.33,187.07 78.11,188.09 71.98,186.79 71.69,188.16 77.94,189.49 77.71,190.53 70.19,188.93 
		71.43,183.14 78.95,184.74 78.73,185.79 72.48,184.45 72.2,185.76 	"/>
	<path class="st4" d="M87.91,184.95c1.66-0.05,2.19,0.17,2.62,0.58c0.33,0.31,0.47,0.79,0.49,1.29c0.01,0.5-0.1,0.96-0.44,1.33
		c-0.31,0.33-0.79,0.62-1.93,0.73l3.24,1.86l0,0.03l-1.98,0.06l-3.19-1.87l-2.34,0.07l0.06,1.96l-1.31,0.04l-0.17-5.92L87.91,184.95
		z M84.35,187.98l3.66-0.11c0.92-0.03,1.32-0.16,1.51-0.38c0.13-0.14,0.2-0.32,0.19-0.61c-0.01-0.27-0.09-0.47-0.25-0.62
		c-0.21-0.2-0.56-0.29-1.51-0.26l-3.67,0.11L84.35,187.98z"/>
	<path class="st4" d="M99.83,182.83l5.6,4.59l-1.45,0.41l-1.29-1.08l-4.97,1.42l-0.53,1.6l-1.39,0.4l2.32-6.85L99.83,182.83z
		 M98.11,186.97l3.6-1.03l-2.57-2.14L98.11,186.97z"/>
	<polygon class="st4" points="115.51,180.85 116.05,181.79 109.74,185.38 106.81,180.24 107.94,179.59 110.34,183.79 	"/>
	<path class="st4" d="M125.15,172.81c-0.02,0.66-0.38,1.65-1.86,3.03l-3.16,2.96l-4.05-4.32l3.16-2.96
		c1.48-1.38,2.48-1.68,3.14-1.66c0.75,0.02,1.38,0.36,1.94,0.95C124.88,171.4,125.18,172.05,125.15,172.81 M122.55,175.08
		c1.01-0.95,1.36-1.63,1.38-2.09c0.01-0.43-0.16-0.84-0.56-1.27c-0.4-0.43-0.8-0.63-1.23-0.64c-0.47-0.01-1.17,0.29-2.18,1.24
		l-2.19,2.05l2.59,2.77L122.55,175.08z"/>
	<polygon class="st4" points="64.5,35.51 65.01,36.46 58.62,39.91 55.81,34.7 56.96,34.08 59.26,38.34 	"/>
	
		<rect x="67.79" y="29.18" transform="matrix(0.9488 -0.3159 0.3159 0.9488 -6.6466 23.265)" class="st4" width="1.31" height="5.92"/>
	<polygon class="st4" points="79.16,32.78 77.48,33.01 72.68,27.66 74.19,27.45 78.23,32.06 80.9,26.54 82.35,26.34 	"/>
	
		<rect x="84.68" y="28.84" transform="matrix(0.0466 -0.9989 0.9989 0.0466 54.0894 115.6711)" class="st4" width="5.92" height="1.31"/>
	<polygon class="st4" points="100.02,33.38 101.15,28.74 102.41,29.04 101.02,34.8 99.24,34.37 95.12,28.37 93.98,33.1 92.71,32.79 
		94.1,27.04 95.97,27.49 	"/>
	<path class="st4" d="M114.29,37.62l-0.32,0.6c-0.39,0.73-0.83,1.1-1.41,1.28c-0.72,0.22-1.83,0.09-3.69-0.92
		c-2.11-1.14-2.72-2.04-2.95-2.8c-0.19-0.65-0.12-1.39,0.29-2.16c0.39-0.71,0.95-1.23,1.65-1.43c0.76-0.23,1.97-0.13,3.95,0.94
		c1.58,0.85,2.65,1.79,3.11,2.45l-0.57,1.06c-0.53-0.82-1.6-1.8-3.04-2.58c-1.44-0.78-2.35-0.93-2.88-0.78
		c-0.42,0.13-0.77,0.43-1.06,0.96c-0.31,0.57-0.35,1.02-0.23,1.42c0.16,0.53,0.64,1.15,2.21,2.01c1.25,0.68,2.16,0.88,2.62,0.74
		c0.31-0.09,0.49-0.25,0.63-0.51l-3.2-1.73l0.5-0.92L114.29,37.62z"/>
</g>
</svg>
