<svg xmlns="http://www.w3.org/2000/svg" xmlns:xlink="http://www.w3.org/1999/xlink" width="78" height="106" viewBox="0 0 78 106">
    <defs>
        <path id="a" d="M0 .929h77.403v106.07H0z"/>
    </defs>
    <g fill="none" fill-rule="evenodd">
        <g transform="translate(0 -.929)">
            <mask id="b" fill="#fff">
                <use xlink:href="#a"/>
            </mask>
            <path fill="#E18184" d="M38.702 107C17.327 107 0 89.673 0 68.299V39.63C0 18.257 17.327.929 38.702.929c21.375 0 38.702 17.328 38.702 38.702v28.668c0 21.374-17.327 38.7-38.702 38.7" mask="url(#b)"/>
        </g>
        <path fill="#FFF" fill-opacity=".29" d="M58.726 51.648c-5.103-5.103-13.375-5.103-18.478 0l-1.546 1.546-1.547-1.546c-5.102-5.103-13.375-5.103-18.478 0-5.102 5.103-5.102 13.375 0 18.478l1.547 1.546L38.702 90.15 57.18 71.672l1.546-1.546c5.103-5.103 5.103-13.375 0-18.478"/>
        <path fill="#FFF" fill-opacity=".29" d="M58.726 40.698c-5.103-5.103-13.375-5.103-18.478 0l-1.546 1.546-1.547-1.546c-5.102-5.103-13.375-5.103-18.478 0-5.102 5.103-5.102 13.375 0 18.478l1.547 1.546L38.702 79.2 57.18 60.722l1.546-1.546c5.103-5.103 5.103-13.375 0-18.478"/>
        <path fill="#FFF" d="M58.726 29.748c-5.103-5.103-13.375-5.103-18.478 0l-1.546 1.547-1.547-1.547c-5.102-5.103-13.375-5.103-18.478 0-5.102 5.103-5.102 13.376 0 18.479l1.547 1.545L38.702 68.25 57.18 49.77l1.546-1.544c5.103-5.103 5.103-13.376 0-18.48"/>
    </g>
</svg>
