<svg xmlns="http://www.w3.org/2000/svg" xmlns:xlink="http://www.w3.org/1999/xlink" width="523" height="351" viewBox="0 0 523 351">
    <defs>
        <path id="a" d="M.036.157h167.376v167.376H.036z"/>
    </defs>
    <g fill="none" fill-rule="evenodd">
        <path fill="#E9F2E1" d="M142.236 100.541c-42.95 0-77.892 34.938-77.892 77.886 0 42.952 34.942 77.896 77.892 77.896 42.95 0 77.892-34.944 77.892-77.896 0-42.948-34.942-77.886-77.892-77.886m0 161.58c-46.145 0-83.688-37.546-83.688-83.694 0-46.143 37.543-83.683 83.688-83.683 46.146 0 83.688 37.54 83.688 83.683 0 46.148-37.542 83.693-83.688 83.693"/>
        <path fill="#E9F2E1" d="M142.235 216.897c-17.333 0-31.433-14.103-31.433-31.436v-6.71a2.899 2.899 0 0 1 5.796 0v6.71c0 14.136 11.501 25.638 25.637 25.638 14.137 0 25.637-11.501 25.637-25.638v-6.71a2.9 2.9 0 0 1 5.797 0v6.71c0 17.332-14.102 31.435-31.434 31.435"/>
        <path fill="#E9F2E1" d="M142.236 345.587a2.899 2.899 0 0 1-2.898-2.898V152.538a2.899 2.899 0 0 1 5.796 0v190.151a2.899 2.899 0 0 1-2.898 2.898"/>
        <path fill="#FFF" d="M251.724 5.797c-42.95 0-77.892 34.939-77.892 77.886 0 42.952 34.942 77.896 77.892 77.896 42.95 0 77.892-34.944 77.892-77.896 0-42.947-34.942-77.886-77.892-77.886"/>
        <g transform="translate(168 -.157)">
            <mask id="b" fill="#fff">
                <use xlink:href="#a"/>
            </mask>
            <path fill="#E9F2E1" d="M83.724 5.954c-42.95 0-77.892 34.939-77.892 77.886 0 42.952 34.942 77.896 77.892 77.896 42.95 0 77.892-34.944 77.892-77.896 0-42.947-34.942-77.886-77.892-77.886m0 161.579C37.578 167.533.036 129.988.036 83.84.036 37.697 37.578.157 83.724.157s83.688 37.54 83.688 83.683c0 46.148-37.542 83.693-83.688 83.693" mask="url(#b)"/>
        </g>
        <path fill="#E9F2E1" d="M251.723 122.152c-17.332 0-31.433-14.102-31.433-31.435v-6.71a2.899 2.899 0 0 1 5.796 0v6.71c0 14.137 11.501 25.638 25.637 25.638 14.137 0 25.638-11.5 25.638-25.638v-6.71a2.899 2.899 0 0 1 5.796 0v6.71c0 17.333-14.1 31.435-31.434 31.435"/>
        <path fill="#E9F2E1" d="M251.724 350.843a2.898 2.898 0 0 1-2.898-2.898V57.794a2.899 2.899 0 0 1 5.796 0v290.15c0 1.6-1.297 2.899-2.898 2.899"/>
        <path stroke="#E9F2E1" stroke-width="5" d="M0 347.598h522.417"/>
    </g>
</svg>
